<?xml version="1.0" encoding="UTF-8"?><svg id="uuid-5c08140d-b62d-44e0-b93d-f754d540538d" xmlns="http://www.w3.org/2000/svg" viewBox="0 0 1100 600"><defs><style>.uuid-d3f1ae4f-2288-4588-9920-a7d5586f2c1e{fill:#786eaf;}.uuid-d3f1ae4f-2288-4588-9920-a7d5586f2c1e,.uuid-d95fbdeb-c678-4367-9d23-49984ff0fffc,.uuid-ff97dbb4-ea7f-4ae7-8cf1-6a56b26c99d3,.uuid-7c121561-a359-416e-8bd8-cdc76794070c,.uuid-ac5e3e20-9870-4f2f-acae-7b4fabd44484,.uuid-7302905f-bfcc-42b1-ac7c-202f167b222a,.uuid-9fd66607-62d4-4f8b-8494-e53780fd3654,.uuid-f3738e9f-72c2-4648-becb-b742523e07fe{stroke-width:0px;}.uuid-d95fbdeb-c678-4367-9d23-49984ff0fffc{fill:#589dee;}.uuid-ff97dbb4-ea7f-4ae7-8cf1-6a56b26c99d3{fill:#3ed299;}.uuid-7c121561-a359-416e-8bd8-cdc76794070c{fill:#33205e;}.uuid-ac5e3e20-9870-4f2f-acae-7b4fabd44484{fill:#ff5f7d;}.uuid-7302905f-bfcc-42b1-ac7c-202f167b222a{fill:#7e61ff;}.uuid-9fd66607-62d4-4f8b-8494-e53780fd3654{fill:#fff;}.uuid-f3738e9f-72c2-4648-becb-b742523e07fe{fill:#ffcb60;}</style></defs><rect class="uuid-9fd66607-62d4-4f8b-8494-e53780fd3654" width="1100" height="600"/><rect class="uuid-ff97dbb4-ea7f-4ae7-8cf1-6a56b26c99d3" x="600" y="163.6133" width="72" height="32" rx="15.99998" ry="15.99998"/><rect class="uuid-ac5e3e20-9870-4f2f-acae-7b4fabd44484" x="600" y="223.80666" width="72" height="31.99998" rx="15.99998" ry="15.99998"/><rect class="uuid-f3738e9f-72c2-4648-becb-b742523e07fe" x="600" y="284.00001" width="72" height="32" rx="15.99998" ry="15.99998"/><rect class="uuid-d95fbdeb-c678-4367-9d23-49984ff0fffc" x="600" y="344.19337" width="72" height="32" rx="15.99998" ry="15.99998"/><rect class="uuid-7302905f-bfcc-42b1-ac7c-202f167b222a" x="600" y="404.3867" width="72" height="32" rx="15.99998" ry="15.99998"/><path class="uuid-7302905f-bfcc-42b1-ac7c-202f167b222a" d="m260.01276,103.99583l12.22547,57.35297c8.57235-1.69848,17.28296-2.60352,26.02139-2.70364v-58.64515c-12.84759.10205-25.65557,1.44016-38.24686,3.99583Z"/><path class="uuid-f3738e9f-72c2-4648-becb-b742523e07fe" d="m210.6039,190.47257l-36.51742-45.87243c-60.78467,49.34392-87.25833,129.57595-67.77689,205.40712l56.64474-15.15828c-2.86902-11.39392-4.31463-23.09955-4.30377-34.84913-.10425-37.5134,14.80251-73.50951,41.39768-99.96514,3.37943-3.37955,6.89797-6.56692,10.55566-9.56214Z"/><path class="uuid-ff97dbb4-ea7f-4ae7-8cf1-6a56b26c99d3" d="m301.73842,100.00001v58.64516c78.06122,1.02773,140.50926,65.14479,139.48156,143.20946-1.02767,78.06467-65.14192,140.51546-143.20313,139.48772-23.57196-.31032-46.69203-6.51132-67.2558-18.03856l-29.33121,50.7529c30.04646,17.06022,64.01762,26.0013,98.5692,25.94303,110.45675,0,200.00098-89.54816,200.00098-199.99984,0-109.88514-88.60993-199.06552-198.26158-199.99987Z"/><path class="uuid-ac5e3e20-9870-4f2f-acae-7b4fabd44484" d="m200.04824,399.95504c-17.18937-17.11176-29.65982-38.37959-36.19936-61.73646l-56.63479,15.14833c13.87122,49.95527,46.56158,92.59069,91.2041,118.95024l29.33123-50.7529c-10.08993-6.03247-19.39439-13.29071-27.70118-21.60921Z"/><path class="uuid-d95fbdeb-c678-4367-9d23-49984ff0fffc" d="m256.6135,104.7115c-29.08948,6.4411-56.36148,19.33209-79.80359,37.72175l36.50747,45.8625c16.33472-12.7443,35.29462-21.70353,55.51164-26.23123l-12.21552-57.35301Z"/><path class="uuid-7c121561-a359-416e-8bd8-cdc76794070c" d="m701.34082,187.32227h-4.94434v-15.27295h5.10059c1.49707,0,2.78223.30469,3.85547.91357,1.07422.60938,1.89844,1.48193,2.47266,2.61768.57422,1.13623.86133,2.49707.86133,4.08301,0,1.59082-.29004,2.95801-.86914,4.10156s-1.41504,2.02197-2.50879,2.63623c-1.09375.61377-2.41699.9209-3.96777.9209Zm-2.63965-2.01367h2.5127c1.16406,0,2.13086-.21973,2.90137-.65967s1.34668-1.0791,1.72949-1.9165c.38281-.83789.57422-1.86084.57422-3.06885,0-1.19824-.18945-2.21484-.57031-3.05029-.37988-.83496-.94531-1.46875-1.69629-1.90137s-1.68262-.64893-2.79688-.64893h-2.6543v11.24561Z"/><path class="uuid-7c121561-a359-416e-8bd8-cdc76794070c" d="m716.30762,187.55322c-1.12891,0-2.09863-.24219-2.91211-.72705-.8125-.48438-1.43945-1.16797-1.87891-2.05078-.44043-.88232-.66016-1.91748-.66016-3.10596,0-1.17334.21973-2.20703.66016-3.10205.43945-.89502,1.05664-1.59326,1.84961-2.0957.79297-.50195,1.7207-.75293,2.78516-.75293.64648,0,1.27246.10693,1.87891.32031.60645.21387,1.15137.5498,1.63379,1.00684.48145.45752.8623,1.05029,1.14062,1.77881.27832.72803.41797,1.61182.41797,2.65088v.79053h-9.10547v-1.67041h6.91992c0-.58643-.11914-1.10742-.35742-1.5625-.23926-.45459-.57324-.81396-1.00391-1.07764-.42969-.26318-.93262-.39502-1.50977-.39502-.62598,0-1.17188.15283-1.63672.4585s-.82324.70361-1.07422,1.19336-.37598,1.02051-.37598,1.59229v1.30469c0,.76562.13477,1.41699.40625,1.9541.27051.53662.64941.9458,1.13672,1.22656.4873.28125,1.05664.42139,1.70801.42139.42285,0,.80762-.06055,1.15625-.18262.34766-.12158.64844-.30469.90234-.54834.25293-.24316.44727-.54443.58105-.90234l2.11035.38037c-.16895.62158-.4707,1.16455-.90527,1.62939-.43555.46533-.97949.82568-1.63379,1.08154-.65332.25586-1.39844.38379-2.2334.38379Z"/><path class="uuid-7c121561-a359-416e-8bd8-cdc76794070c" d="m725.93555,172.04932v15.27295h-2.22949v-15.27295h2.22949Z"/><path class="uuid-7c121561-a359-416e-8bd8-cdc76794070c" d="m730.05957,174.1001c-.3877,0-.71973-.13037-.99512-.39111-.27637-.26123-.41406-.57324-.41406-.93604,0-.36768.1377-.68262.41406-.94336.27539-.26123.60742-.3916.99512-.3916s.71973.13037.99512.3916c.27637.26074.41406.57324.41406.93604,0,.36768-.1377.68213-.41406.94336-.27539.26074-.60742.39111-.99512.39111Zm-1.12598,13.22217v-11.45459h2.22949v11.45459h-2.22949Z"/><path class="uuid-7c121561-a359-416e-8bd8-cdc76794070c" d="m743.95996,175.86768l-4.15332,11.45459h-2.38672l-4.16113-11.45459h2.39355l2.90137,8.81445h.11914l2.89355-8.81445h2.39355Z"/><path class="uuid-7c121561-a359-416e-8bd8-cdc76794070c" d="m750.58887,187.55322c-1.12891,0-2.09863-.24219-2.91211-.72705-.8125-.48438-1.43945-1.16797-1.87891-2.05078-.44043-.88232-.66016-1.91748-.66016-3.10596,0-1.17334.21973-2.20703.66016-3.10205.43945-.89502,1.05664-1.59326,1.84961-2.0957.79297-.50195,1.7207-.75293,2.78516-.75293.64648,0,1.27246.10693,1.87891.32031.60645.21387,1.15137.5498,1.63379,1.00684.48145.45752.8623,1.05029,1.14062,1.77881.27832.72803.41797,1.61182.41797,2.65088v.79053h-9.10547v-1.67041h6.91992c0-.58643-.11914-1.10742-.35742-1.5625-.23926-.45459-.57324-.81396-1.00391-1.07764-.42969-.26318-.93262-.39502-1.50977-.39502-.62598,0-1.17188.15283-1.63672.4585s-.82324.70361-1.07422,1.19336-.37598,1.02051-.37598,1.59229v1.30469c0,.76562.13477,1.41699.40625,1.9541.27051.53662.64941.9458,1.13672,1.22656.4873.28125,1.05664.42139,1.70801.42139.42285,0,.80762-.06055,1.15625-.18262.34766-.12158.64844-.30469.90234-.54834.25293-.24316.44727-.54443.58105-.90234l2.11035.38037c-.16895.62158-.4707,1.16455-.90527,1.62939-.43555.46533-.97949.82568-1.63379,1.08154-.65332.25586-1.39844.38379-2.2334.38379Z"/><path class="uuid-7c121561-a359-416e-8bd8-cdc76794070c" d="m757.9873,187.32227v-11.45459h2.15527v1.81982h.11914c.20898-.6167.57812-1.10254,1.10742-1.45801s1.12988-.5332,1.80078-.5332c.13965,0,.30469.00488.49609.01465.19141.01025.3418.02246.45117.0376v2.13281c-.08984-.0249-.24902-.05371-.47754-.08594s-.45703-.04834-.68555-.04834c-.52734,0-.99609.11084-1.40625.33154-.41016.22168-.73438.52734-.97266.91748-.23926.39014-.3584.83398-.3584,1.33105v6.99512h-2.22949Z"/><path class="uuid-7c121561-a359-416e-8bd8-cdc76794070c" d="m769.28516,187.57568c-.72559,0-1.38184-.13525-1.96875-.40625-.58594-.271-1.0498-.66504-1.39062-1.18213s-.51074-1.15088-.51074-1.90137c0-.64648.12402-1.17822.37305-1.59619.24805-.41748.58398-.74805,1.00684-.9917.42188-.24365.89453-.42773,1.41699-.55176.52148-.12451,1.05371-.21875,1.5957-.28369.68555-.0791,1.24316-.14502,1.66992-.19727.42773-.05225.73828-.13818.93262-.25732.19434-.11963.29102-.31348.29102-.58154v-.05225c0-.65137-.18262-1.15625-.54785-1.51416-.36621-.35791-.90918-.53662-1.62988-.53662-.75098,0-1.34082.16504-1.77148.49561-.42969.33105-.72656.69727-.89062,1.1001l-2.0957-.47705c.24902-.69629.6123-1.25928,1.09277-1.68945.47949-.42969,1.03223-.74316,1.65918-.93945.62598-.19629,1.28516-.29443,1.97559-.29443.45801,0,.94336.05322,1.45801.16016s.99707.30225,1.44727.58545.81934.6875,1.10742,1.21191.43262,1.2041.43262,2.03955v7.60645h-2.17773v-1.56592h-.08984c-.14355.28809-.36035.57178-.64844.8501s-.65918.50977-1.11133.69336c-.45215.18408-.99414.27588-1.62598.27588Zm.48535-1.78955c.61621,0,1.14453-.12207,1.58398-.36572.44043-.24316.77637-.56299,1.00684-.95801.23145-.39551.34668-.81885.34668-1.27148v-1.47656c-.0791.07959-.23242.15283-.45801.21973-.22656.06738-.4834.12451-.77246.17188-.28809.04736-.56934.08936-.8418.12646-.27344.0376-.50293.06836-.68652.09326-.43262.05469-.82617.14697-1.18164.27588-.35547.12939-.63965.31445-.85059.55566s-.31641.56055-.31641.9585c0,.55176.20312.96826.61133,1.24902.40723.28076.92676.42139,1.55859.42139Z"/><path class="uuid-7c121561-a359-416e-8bd8-cdc76794070c" d="m778.08496,187.32227v-15.27295h2.22949v5.67529h.13477c.12891-.23877.31543-.51465.55957-.82764.24316-.31348.58105-.58789,1.01367-.82422.43262-.23584,1.00391-.354,1.71582-.354.92383,0,1.74902.2334,2.47559.70068.72559.46729,1.2959,1.14111,1.71094,2.021s.62305,1.93896.62305,3.17676c0,1.23828-.20605,2.29834-.61914,3.18066-.41211.88281-.97949,1.56104-1.7002,2.03613-.7207.47461-1.54395.71191-2.46875.71191-.69531,0-1.26367-.1167-1.70312-.35059-.44043-.2334-.78516-.50684-1.0332-.82031-.24902-.31299-.44043-.59131-.57422-.83496h-.18652v1.78223h-2.17773Zm2.18555-5.72705c0,.80518.11621,1.51123.35059,2.11768.2334.60645.57129,1.08008,1.01367,1.42041.44238.34082.98438.51123,1.62598.51123.66602,0,1.22266-.17773,1.66992-.5332.44824-.35547.78711-.83936,1.01855-1.45068.23047-.61133.34668-1.2998.34668-2.06543,0-.75586-.11328-1.43457-.33984-2.03613-.22559-.60156-.56348-1.07617-1.01367-1.42432s-1.01074-.52197-1.68164-.52197c-.64648,0-1.19238.1665-1.63672.49951-.44531.33301-.78223.79785-1.01074,1.39453s-.34277,1.29297-.34277,2.08838Z"/><path class="uuid-7c121561-a359-416e-8bd8-cdc76794070c" d="m793.27539,172.04932v15.27295h-2.22949v-15.27295h2.22949Z"/><path class="uuid-7c121561-a359-416e-8bd8-cdc76794070c" d="m801.20996,187.55322c-1.12891,0-2.09863-.24219-2.91211-.72705-.8125-.48438-1.43945-1.16797-1.87891-2.05078-.44043-.88232-.66016-1.91748-.66016-3.10596,0-1.17334.21973-2.20703.66016-3.10205.43945-.89502,1.05664-1.59326,1.84961-2.0957.79297-.50195,1.7207-.75293,2.78516-.75293.64648,0,1.27246.10693,1.87891.32031.60645.21387,1.15137.5498,1.63379,1.00684.48145.45752.8623,1.05029,1.14062,1.77881.27832.72803.41797,1.61182.41797,2.65088v.79053h-9.10547v-1.67041h6.91992c0-.58643-.11914-1.10742-.35742-1.5625-.23926-.45459-.57324-.81396-1.00391-1.07764-.42969-.26318-.93262-.39502-1.50977-.39502-.62598,0-1.17188.15283-1.63672.4585s-.82324.70361-1.07422,1.19336-.37598,1.02051-.37598,1.59229v1.30469c0,.76562.13477,1.41699.40625,1.9541.27051.53662.64941.9458,1.13672,1.22656.4873.28125,1.05664.42139,1.70801.42139.42285,0,.80762-.06055,1.15625-.18262.34766-.12158.64844-.30469.90234-.54834.25293-.24316.44727-.54443.58105-.90234l2.11035.38037c-.16895.62158-.4707,1.16455-.90527,1.62939-.43555.46533-.97949.82568-1.63379,1.08154-.65332.25586-1.39844.38379-2.2334.38379Z"/><path class="uuid-7c121561-a359-416e-8bd8-cdc76794070c" d="m706.21777,232.22168h2.3125v10.04541c0,1.06885-.25195,2.01465-.75391,2.8374s-1.20801,1.46924-2.11719,1.93896c-.91016.46973-1.97656.70459-3.19922.70459-1.21875,0-2.28223-.23486-3.19238-.70459-.90918-.46973-1.61523-1.11621-2.11816-1.93896-.50195-.82275-.75293-1.76855-.75293-2.8374v-10.04541h2.30469v9.85889c0,.69092.15234,1.30518.45801,1.8418.30664.53711.74023.9585,1.30176,1.26416s1.22754.4585,1.99902.4585c.77539,0,1.44531-.15283,2.00977-.4585.56348-.30566.99609-.72705,1.29688-1.26416.30078-.53662.45117-1.15088.45117-1.8418v-9.85889Z"/><path class="uuid-7c121561-a359-416e-8bd8-cdc76794070c" d="m713.93652,240.69336v6.80127h-2.22949v-11.45459h2.14062v1.86426h.1416c.2627-.60645.67676-1.09375,1.24121-1.46143.56445-.36816,1.27637-.55176,2.13672-.55176.78027,0,1.46387.1626,2.05078.48828s1.04102.80908,1.36426,1.45068c.32324.64111.48535,1.43408.48535,2.37891v7.28564h-2.23047v-7.01758c0-.83008-.21582-1.47998-.64844-1.94971-.43262-.47021-1.02637-.70508-1.78223-.70508-.51758,0-.97559.11182-1.37598.33594-.40039.22363-.71582.55029-.94727.98047-.23047.43018-.34668.94824-.34668,1.55469Z"/><path class="uuid-7c121561-a359-416e-8bd8-cdc76794070c" d="m728.53809,247.71826c-.9248,0-1.74902-.2373-2.47266-.71191-.72266-.4751-1.29004-1.15332-1.7002-2.03613-.41016-.88232-.61523-1.94238-.61523-3.18066,0-1.23779.20801-2.29688.62305-3.17676s.98535-1.55371,1.71094-2.021c.72656-.46729,1.54883-.70068,2.46875-.70068.71094,0,1.28418.11816,1.71875.354.43555.23633.77344.51074,1.01465.82422.24121.31299.42871.58887.5625.82764h.13477v-5.67529h2.22949v15.27295h-2.17773v-1.78223h-.18652c-.13379.24365-.32617.52197-.57715.83496-.25195.31348-.5957.58691-1.0332.82031-.4375.23389-1.00391.35059-1.7002.35059Zm.49219-1.90137c.6416,0,1.18457-.17041,1.62891-.51123.44531-.34033.7832-.81396,1.01465-1.42041s.34668-1.3125.34668-2.11768c0-.79541-.11426-1.4917-.34277-2.08838s-.56445-1.06152-1.00684-1.39453-.98926-.49951-1.64062-.49951c-.6709,0-1.23047.17383-1.67773.52197-.44824.34814-.78418.82275-1.01074,1.42432s-.33984,1.28027-.33984,2.03613c0,.76562.11523,1.4541.34375,2.06543s.56738,1.09521,1.01758,1.45068,1.00586.5332,1.66699.5332Z"/><path class="uuid-7c121561-a359-416e-8bd8-cdc76794070c" d="m742.32617,247.72559c-1.12891,0-2.09863-.24219-2.91211-.72705-.8125-.48438-1.43945-1.16797-1.87891-2.05078-.44043-.88232-.66016-1.91748-.66016-3.10596,0-1.17334.21973-2.20703.66016-3.10205.43945-.89502,1.05664-1.59326,1.84961-2.0957.79297-.50195,1.7207-.75293,2.78516-.75293.64648,0,1.27246.10693,1.87891.32031.60645.21387,1.15137.5498,1.63379,1.00684.48145.45752.8623,1.05029,1.14062,1.77881.27832.72803.41797,1.61182.41797,2.65088v.79053h-9.10547v-1.67041h6.91992c0-.58643-.11914-1.10742-.35742-1.5625-.23926-.45459-.57324-.81396-1.00391-1.07764-.42969-.26318-.93262-.39502-1.50977-.39502-.62598,0-1.17188.15283-1.63672.4585s-.82324.70361-1.07422,1.19336-.37598,1.02051-.37598,1.59229v1.30469c0,.76562.13477,1.41699.40625,1.9541.27051.53662.64941.9458,1.13672,1.22656.4873.28125,1.05664.42139,1.70801.42139.42285,0,.80762-.06055,1.15625-.18262.34766-.12158.64844-.30469.90234-.54834.25293-.24316.44727-.54443.58105-.90234l2.11035.38037c-.16895.62158-.4707,1.16455-.90527,1.62939-.43555.46533-.97949.82568-1.63379,1.08154-.65332.25586-1.39844.38379-2.2334.38379Z"/><path class="uuid-7c121561-a359-416e-8bd8-cdc76794070c" d="m751.95312,232.22168v15.27295h-2.22949v-15.27295h2.22949Z"/><path class="uuid-7c121561-a359-416e-8bd8-cdc76794070c" d="m756.07715,234.27246c-.3877,0-.71973-.13037-.99512-.39111-.27637-.26123-.41406-.57324-.41406-.93604,0-.36768.1377-.68262.41406-.94336.27539-.26123.60742-.3916.99512-.3916s.71973.13037.99512.3916c.27637.26074.41406.57324.41406.93604,0,.36768-.1377.68213-.41406.94336-.27539.26074-.60742.39111-.99512.39111Zm-1.12598,13.22217v-11.45459h2.22949v11.45459h-2.22949Z"/><path class="uuid-7c121561-a359-416e-8bd8-cdc76794070c" d="m769.97754,236.04004l-4.15332,11.45459h-2.38672l-4.16113-11.45459h2.39355l2.90137,8.81445h.11914l2.89355-8.81445h2.39355Z"/><path class="uuid-7c121561-a359-416e-8bd8-cdc76794070c" d="m776.60742,247.72559c-1.12891,0-2.09863-.24219-2.91211-.72705-.8125-.48438-1.43945-1.16797-1.87891-2.05078-.44043-.88232-.66016-1.91748-.66016-3.10596,0-1.17334.21973-2.20703.66016-3.10205.43945-.89502,1.05664-1.59326,1.84961-2.0957.79297-.50195,1.7207-.75293,2.78516-.75293.64648,0,1.27246.10693,1.87891.32031.60645.21387,1.15137.5498,1.63379,1.00684.48145.45752.8623,1.05029,1.14062,1.77881.27832.72803.41797,1.61182.41797,2.65088v.79053h-9.10547v-1.67041h6.91992c0-.58643-.11914-1.10742-.35742-1.5625-.23926-.45459-.57324-.81396-1.00391-1.07764-.42969-.26318-.93262-.39502-1.50977-.39502-.62598,0-1.17188.15283-1.63672.4585s-.82324.70361-1.07422,1.19336-.37598,1.02051-.37598,1.59229v1.30469c0,.76562.13477,1.41699.40625,1.9541.27051.53662.64941.9458,1.13672,1.22656.4873.28125,1.05664.42139,1.70801.42139.42285,0,.80762-.06055,1.15625-.18262.34766-.12158.64844-.30469.90234-.54834.25293-.24316.44727-.54443.58105-.90234l2.11035.38037c-.16895.62158-.4707,1.16455-.90527,1.62939-.43555.46533-.97949.82568-1.63379,1.08154-.65332.25586-1.39844.38379-2.2334.38379Z"/><path class="uuid-7c121561-a359-416e-8bd8-cdc76794070c" d="m784.00586,247.49463v-11.45459h2.15527v1.81982h.11914c.20898-.6167.57812-1.10254,1.10742-1.45801s1.12988-.5332,1.80078-.5332c.13965,0,.30469.00488.49609.01465.19141.01025.3418.02246.45117.0376v2.13281c-.08984-.0249-.24902-.05371-.47754-.08594s-.45703-.04834-.68555-.04834c-.52734,0-.99609.11084-1.40625.33154-.41016.22168-.73438.52734-.97266.91748-.23926.39014-.3584.83398-.3584,1.33105v6.99512h-2.22949Z"/><path class="uuid-7c121561-a359-416e-8bd8-cdc76794070c" d="m795.30371,247.74805c-.72559,0-1.38184-.13525-1.96875-.40625-.58594-.271-1.0498-.66504-1.39062-1.18213s-.51074-1.15088-.51074-1.90137c0-.64648.12402-1.17822.37305-1.59619.24805-.41748.58398-.74805,1.00684-.9917.42188-.24365.89453-.42773,1.41699-.55176.52148-.12451,1.05371-.21875,1.5957-.28369.68555-.0791,1.24316-.14502,1.66992-.19727.42773-.05225.73828-.13818.93262-.25732.19434-.11963.29102-.31348.29102-.58154v-.05225c0-.65137-.18262-1.15625-.54785-1.51416-.36621-.35791-.90918-.53662-1.62988-.53662-.75098,0-1.34082.16504-1.77148.49561-.42969.33105-.72656.69727-.89062,1.1001l-2.0957-.47705c.24902-.69629.6123-1.25928,1.09277-1.68945.47949-.42969,1.03223-.74316,1.65918-.93945.62598-.19629,1.28516-.29443,1.97559-.29443.45801,0,.94336.05322,1.45801.16016s.99707.30225,1.44727.58545.81934.6875,1.10742,1.21191.43262,1.2041.43262,2.03955v7.60645h-2.17773v-1.56592h-.08984c-.14355.28809-.36035.57178-.64844.8501s-.65918.50977-1.11133.69336c-.45215.18408-.99414.27588-1.62598.27588Zm.48535-1.78955c.61621,0,1.14453-.12207,1.58398-.36572.44043-.24316.77637-.56299,1.00684-.95801.23145-.39551.34668-.81885.34668-1.27148v-1.47656c-.0791.07959-.23242.15283-.45801.21973-.22656.06738-.4834.12451-.77246.17188-.28809.04736-.56934.08936-.8418.12646-.27344.0376-.50293.06836-.68652.09326-.43262.05469-.82617.14697-1.18164.27588-.35547.12939-.63965.31445-.85059.55566s-.31641.56055-.31641.9585c0,.55176.20312.96826.61133,1.24902.40723.28076.92676.42139,1.55859.42139Z"/><path class="uuid-7c121561-a359-416e-8bd8-cdc76794070c" d="m804.10352,247.49463v-15.27295h2.22949v5.67529h.13477c.12891-.23877.31543-.51465.55957-.82764.24316-.31348.58105-.58789,1.01367-.82422.43262-.23584,1.00391-.354,1.71582-.354.92383,0,1.74902.2334,2.47559.70068.72559.46729,1.2959,1.14111,1.71094,2.021s.62305,1.93896.62305,3.17676c0,1.23828-.20605,2.29834-.61914,3.18066-.41211.88281-.97949,1.56104-1.7002,2.03613-.7207.47461-1.54395.71191-2.46875.71191-.69531,0-1.26367-.1167-1.70312-.35059-.44043-.2334-.78516-.50684-1.0332-.82031-.24902-.31299-.44043-.59131-.57422-.83496h-.18652v1.78223h-2.17773Zm2.18555-5.72705c0,.80518.11621,1.51123.35059,2.11768.2334.60645.57129,1.08008,1.01367,1.42041.44238.34082.98438.51123,1.62598.51123.66602,0,1.22266-.17773,1.66992-.5332.44824-.35547.78711-.83936,1.01855-1.45068.23047-.61133.34668-1.2998.34668-2.06543,0-.75586-.11328-1.43457-.33984-2.03613-.22559-.60156-.56348-1.07617-1.01367-1.42432s-1.01074-.52197-1.68164-.52197c-.64648,0-1.19238.1665-1.63672.49951-.44531.33301-.78223.79785-1.01074,1.39453s-.34277,1.29297-.34277,2.08838Z"/><path class="uuid-7c121561-a359-416e-8bd8-cdc76794070c" d="m819.29395,232.22168v15.27295h-2.22949v-15.27295h2.22949Z"/><path class="uuid-7c121561-a359-416e-8bd8-cdc76794070c" d="m827.22852,247.72559c-1.12891,0-2.09863-.24219-2.91211-.72705-.8125-.48438-1.43945-1.16797-1.87891-2.05078-.44043-.88232-.66016-1.91748-.66016-3.10596,0-1.17334.21973-2.20703.66016-3.10205.43945-.89502,1.05664-1.59326,1.84961-2.0957.79297-.50195,1.7207-.75293,2.78516-.75293.64648,0,1.27246.10693,1.87891.32031.60645.21387,1.15137.5498,1.63379,1.00684.48145.45752.8623,1.05029,1.14062,1.77881.27832.72803.41797,1.61182.41797,2.65088v.79053h-9.10547v-1.67041h6.91992c0-.58643-.11914-1.10742-.35742-1.5625-.23926-.45459-.57324-.81396-1.00391-1.07764-.42969-.26318-.93262-.39502-1.50977-.39502-.62598,0-1.17188.15283-1.63672.4585s-.82324.70361-1.07422,1.19336-.37598,1.02051-.37598,1.59229v1.30469c0,.76562.13477,1.41699.40625,1.9541.27051.53662.64941.9458,1.13672,1.22656.4873.28125,1.05664.42139,1.70801.42139.42285,0,.80762-.06055,1.15625-.18262.34766-.12158.64844-.30469.90234-.54834.25293-.24316.44727-.54443.58105-.90234l2.11035.38037c-.16895.62158-.4707,1.16455-.90527,1.62939-.43555.46533-.97949.82568-1.63379,1.08154-.65332.25586-1.39844.38379-2.2334.38379Z"/><path class="uuid-7c121561-a359-416e-8bd8-cdc76794070c" d="m696.39648,307.6665v-15.27295h5.44434c1.18262,0,2.16602.2041,2.94922.61182s1.36816.9707,1.75586,1.68896c.3877.71875.58203,1.54736.58203,2.4873,0,.93457-.19531,1.75586-.58594,2.46436-.38965.7085-.97656,1.25928-1.75977,1.65186-.7832.39307-1.76562.58936-2.94922.58936h-4.12402v-1.98389h3.91504c.74609,0,1.35352-.10693,1.82324-.3208.46973-.21338.81445-.52441,1.0332-.93213.21875-.40723.32812-.89697.32812-1.46875,0-.57666-.11035-1.07666-.33203-1.49902-.2207-.42285-.56641-.74707-1.03613-.97314-.46973-.22656-1.08496-.33936-1.8457-.33936h-2.89355v13.29639h-2.30469Zm7.54004-6.89062l3.77344,6.89062h-2.625l-3.69922-6.89062h2.55078Z"/><path class="uuid-7c121561-a359-416e-8bd8-cdc76794070c" d="m710.88672,294.44434c-.3877,0-.71973-.13037-.99512-.39111-.27637-.26123-.41406-.57324-.41406-.93604,0-.36768.1377-.68262.41406-.94336.27539-.26123.60742-.3916.99512-.3916s.71973.13037.99512.3916c.27637.26074.41406.57324.41406.93604,0,.36768-.1377.68213-.41406.94336-.27539.26074-.60742.39111-.99512.39111Zm-1.12598,13.22217v-11.45459h2.22949v11.45459h-2.22949Z"/><path class="uuid-7c121561-a359-416e-8bd8-cdc76794070c" d="m723.57129,299.0083l-2.02051.35791c-.08496-.2583-.21777-.50439-.39941-.73828-.18164-.2334-.42578-.4248-.73438-.57422-.30859-.14893-.69336-.22363-1.15527-.22363-.63184,0-1.15918.14062-1.58105.42139-.42285.28125-.63379.64258-.63379,1.08496,0,.3833.1416.69141.4248.9248.2832.23389.74023.42529,1.37207.57422l1.81934.41748c1.05371.24365,1.83984.61914,2.35645,1.12646.51758.50684.77539,1.16553.77539,1.97607,0,.68604-.19727,1.29639-.59277,1.83057-.39453.53467-.94434.95361-1.64746,1.25684-.7041.30322-1.51758.45459-2.44238.45459-1.2832,0-2.3291-.27441-3.13965-.82373s-1.30762-1.33105-1.49121-2.34521l2.15527-.32812c.13379.56152.41016.98535.82715,1.27148.41797.28564.96191.42871,1.63379.42871.73047,0,1.31445-.15283,1.75195-.45898.4375-.30566.65625-.67969.65625-1.12207,0-.35791-.13281-.65869-.39844-.90234-.2666-.24365-.67285-.42773-1.21973-.55176l-1.93848-.42529c-1.06934-.24365-1.8584-.63135-2.36816-1.16309-.50977-.53223-.76465-1.20557-.76465-2.021,0-.67627.18945-1.26807.56738-1.7749.37695-.50732.89941-.90381,1.56543-1.18945.66602-.28613,1.42969-.42871,2.29004-.42871,1.2373,0,2.21191.26709,2.92285.80127.71094.53467,1.18066,1.24951,1.40918,2.14404Z"/><path class="uuid-7c121561-a359-416e-8bd8-cdc76794070c" d="m726.24121,307.6665v-15.27295h2.22949v15.27295h-2.22949Zm2.05078-3.88525l-.01465-2.72217h.3877l4.56348-4.84717h2.66992l-5.20508,5.51855h-.35059l-2.05078,2.05078Zm5.18262,3.88525l-4.10156-5.44385,1.53613-1.55859,5.30273,7.00244h-2.7373Z"/><path class="uuid-7c121561-a359-416e-8bd8-cdc76794070c" d="m739.39551,311.96191c-.33301,0-.63672-.02588-.90918-.07812-.27344-.05225-.47754-.1084-.6123-.16797l.53711-1.82715c.4082.10938.77051.15674,1.08887.1416.31836-.01465.60059-.13379.84668-.35791.24609-.22363.46289-.58887.65234-1.09619l.27637-.76074-4.19141-11.60352h2.38672l2.90039,8.88916h.11914l2.90137-8.88916h2.39355l-4.7207,12.9834c-.21875.59668-.49707,1.10254-.83496,1.51758s-.74121.72705-1.20801.93604c-.46777.2085-1.00977.31299-1.62598.31299Z"/><path class="uuid-7c121561-a359-416e-8bd8-cdc76794070c" d="m706.21777,352.56543h2.3125v10.04541c0,1.06885-.25195,2.01465-.75391,2.8374s-1.20801,1.46924-2.11719,1.93896c-.91016.46973-1.97656.70459-3.19922.70459-1.21875,0-2.28223-.23486-3.19238-.70459-.90918-.46973-1.61523-1.11621-2.11816-1.93896-.50195-.82275-.75293-1.76855-.75293-2.8374v-10.04541h2.30469v9.85889c0,.69092.15234,1.30518.45801,1.8418.30664.53711.74023.9585,1.30176,1.26416s1.22754.4585,1.99902.4585c.77539,0,1.44531-.15283,2.00977-.4585.56348-.30566.99609-.72705,1.29688-1.26416.30078-.53662.45117-1.15088.45117-1.8418v-9.85889Z"/><path class="uuid-7c121561-a359-416e-8bd8-cdc76794070c" d="m713.93652,361.03711v6.80127h-2.22949v-11.45459h2.14062v1.86426h.1416c.2627-.60645.67676-1.09375,1.24121-1.46143.56445-.36816,1.27637-.55176,2.13672-.55176.78027,0,1.46387.1626,2.05078.48828s1.04102.80908,1.36426,1.45068c.32324.64111.48535,1.43408.48535,2.37891v7.28564h-2.23047v-7.01758c0-.83008-.21582-1.47998-.64844-1.94971-.43262-.47021-1.02637-.70508-1.78223-.70508-.51758,0-.97559.11182-1.37598.33594-.40039.22363-.71582.55029-.94727.98047-.23047.43018-.34668.94824-.34668,1.55469Z"/><path class="uuid-7c121561-a359-416e-8bd8-cdc76794070c" d="m724.25,367.83838v-15.27295h2.22949v15.27295h-2.22949Zm2.05078-3.88525l-.01465-2.72217h.3877l4.56348-4.84717h2.66992l-5.20508,5.51855h-.35059l-2.05078,2.05078Zm5.18262,3.88525l-4.10156-5.44385,1.53613-1.55859,5.30273,7.00244h-2.7373Z"/><path class="uuid-7c121561-a359-416e-8bd8-cdc76794070c" d="m738.16504,361.03711v6.80127h-2.22949v-11.45459h2.14062v1.86426h.1416c.2627-.60645.67676-1.09375,1.24121-1.46143.56445-.36816,1.27637-.55176,2.13672-.55176.78027,0,1.46387.1626,2.05078.48828s1.04102.80908,1.36426,1.45068c.32324.64111.48535,1.43408.48535,2.37891v7.28564h-2.23047v-7.01758c0-.83008-.21582-1.47998-.64844-1.94971-.43262-.47021-1.02637-.70508-1.78223-.70508-.51758,0-.97559.11182-1.37598.33594-.40039.22363-.71582.55029-.94727.98047-.23047.43018-.34668.94824-.34668,1.55469Z"/><path class="uuid-7c121561-a359-416e-8bd8-cdc76794070c" d="m753.30371,368.06934c-1.07422,0-2.01172-.24609-2.81152-.73828-.80078-.49219-1.42188-1.18066-1.86426-2.06543-.44336-.88477-.66406-1.91895-.66406-3.10254,0-1.18799.2207-2.22705.66406-3.11719.44238-.88965,1.06348-1.58057,1.86426-2.07275.7998-.49219,1.7373-.73828,2.81152-.73828,1.07324,0,2.01074.24609,2.81152.73828.7998.49219,1.4209,1.18311,1.86426,2.07275.44238.89014.66309,1.9292.66309,3.11719,0,1.18359-.2207,2.21777-.66309,3.10254-.44336.88477-1.06445,1.57324-1.86426,2.06543-.80078.49219-1.73828.73828-2.81152.73828Zm.00684-1.87158c.69629,0,1.27246-.18408,1.73047-.55176.45703-.36816.79688-.85791,1.01758-1.46924.22168-.61133.33203-1.28516.33203-2.021,0-.73096-.11035-1.40283-.33203-2.01709-.2207-.61377-.56055-1.10742-1.01758-1.48047-.45801-.37256-1.03418-.55908-1.73047-.55908-.70117,0-1.28125.18652-1.74121.55908-.45996.37305-.80078.8667-1.02148,1.48047-.22168.61426-.33203,1.28613-.33203,2.01709,0,.73584.11035,1.40967.33203,2.021.2207.61133.56152,1.10107,1.02148,1.46924.45996.36768,1.04004.55176,1.74121.55176Z"/><path class="uuid-7c121561-a359-416e-8bd8-cdc76794070c" d="m763.25879,367.83838l-3.37109-11.45459h2.30469l2.24414,8.41211h.1123l2.25195-8.41211h2.30469l2.2373,8.37451h.11133l2.22949-8.37451h2.30469l-3.36328,11.45459h-2.27441l-2.32715-8.27002h-.1709l-2.32715,8.27002h-2.2666Z"/><path class="uuid-7c121561-a359-416e-8bd8-cdc76794070c" d="m780.32812,361.03711v6.80127h-2.22949v-11.45459h2.14062v1.86426h.1416c.2627-.60645.67676-1.09375,1.24121-1.46143.56445-.36816,1.27637-.55176,2.13672-.55176.78027,0,1.46387.1626,2.05078.48828s1.04102.80908,1.36426,1.45068c.32324.64111.48535,1.43408.48535,2.37891v7.28564h-2.23047v-7.01758c0-.83008-.21582-1.47998-.64844-1.94971-.43262-.47021-1.02637-.70508-1.78223-.70508-.51758,0-.97559.11182-1.37598.33594-.40039.22363-.71582.55029-.94727.98047-.23047.43018-.34668.94824-.34668,1.55469Z"/><path class="uuid-7c121561-a359-416e-8bd8-cdc76794070c" d="m701.34082,428.01025h-4.94434v-15.27295h5.10059c1.49707,0,2.78223.30469,3.85547.91357,1.07422.60938,1.89844,1.48193,2.47266,2.61768.57422,1.13623.86133,2.49707.86133,4.08301,0,1.59082-.29004,2.95801-.86914,4.10156s-1.41504,2.02197-2.50879,2.63623c-1.09375.61377-2.41699.9209-3.96777.9209Zm-2.63965-2.01367h2.5127c1.16406,0,2.13086-.21973,2.90137-.65967s1.34668-1.0791,1.72949-1.9165c.38281-.83789.57422-1.86084.57422-3.06885,0-1.19824-.18945-2.21484-.57031-3.05029-.37988-.83496-.94531-1.46875-1.69629-1.90137s-1.68262-.64893-2.79688-.64893h-2.6543v11.24561Z"/><path class="uuid-7c121561-a359-416e-8bd8-cdc76794070c" d="m718.62695,423.25977v-6.7041h2.2373v11.45459h-2.19238v-1.98389h-.11914c-.26367.61182-.68555,1.12012-1.26465,1.52539s-1.29883.60742-2.1582.60742c-.73633,0-1.38672-.1626-1.9502-.48828-.56445-.32568-1.00684-.80908-1.32812-1.4502-.32031-.6416-.48047-1.43457-.48047-2.37891v-7.28613h2.22949v7.01758c0,.78027.2168,1.40186.64941,1.86426.43164.4624.99414.69336,1.68457.69336.41797,0,.83398-.10449,1.24902-.31299.41504-.20898.76074-.52441,1.03711-.94727.27539-.42236.41113-.95947.40625-1.61084Z"/><path class="uuid-7c121561-a359-416e-8bd8-cdc76794070c" d="m723.85449,432.30566v-15.75h2.17773v1.85693h.18652c.12891-.23877.31543-.51465.55859-.82764.24414-.31348.58203-.58789,1.01465-.82422.43262-.23584,1.00391-.354,1.71484-.354.9248,0,1.75.2334,2.47656.70068.72559.46729,1.2959,1.14111,1.71094,2.021s.62305,1.93896.62305,3.17676c0,1.23828-.20703,2.29834-.61914,3.18066-.41309.88281-.97949,1.56104-1.7002,2.03613-.7207.47461-1.54395.71191-2.46875.71191-.69629,0-1.26367-.1167-1.7041-.35059-.43945-.2334-.78418-.50684-1.03223-.82031-.24902-.31299-.44043-.59131-.57422-.83496h-.13477v6.07764h-2.22949Zm2.18457-10.02246c0,.80518.11719,1.51123.35059,2.11768.23438.60645.57227,1.08008,1.01465,1.42041.44238.34082.98438.51123,1.62598.51123.66602,0,1.22266-.17773,1.66992-.5332s.78711-.83936,1.01758-1.45068c.23145-.61133.34766-1.2998.34766-2.06543,0-.75586-.11328-1.43457-.33984-2.03613s-.56445-1.07617-1.01367-1.42432c-.4502-.34814-1.01074-.52197-1.68164-.52197-.64648,0-1.19238.1665-1.6377.49951-.44434.33301-.78125.79785-1.00977,1.39453-.22949.59668-.34375,1.29297-.34375,2.08838Z"/><path class="uuid-7c121561-a359-416e-8bd8-cdc76794070c" d="m739.04492,412.7373v15.27295h-2.22949v-15.27295h2.22949Z"/><path class="uuid-7c121561-a359-416e-8bd8-cdc76794070c" d="m743.16895,414.78809c-.3877,0-.71973-.13037-.99512-.39111-.27637-.26123-.41406-.57324-.41406-.93604,0-.36768.1377-.68262.41406-.94336.27539-.26123.60742-.3916.99512-.3916s.71973.13037.99512.3916c.27637.26074.41406.57324.41406.93604,0,.36768-.1377.68213-.41406.94336-.27539.26074-.60742.39111-.99512.39111Zm-1.12598,13.22217v-11.45459h2.22949v11.45459h-2.22949Z"/><path class="uuid-7c121561-a359-416e-8bd8-cdc76794070c" d="m752.0957,428.24121c-1.10938,0-2.0625-.25195-2.86035-.75684-.79785-.50439-1.41016-1.20166-1.83789-2.0918-.42773-.88965-.6416-1.90918-.6416-3.05762,0-1.16309.21875-2.19092.65625-3.0835.4375-.89209,1.05371-1.58936,1.84961-2.0918.79492-.50195,1.73242-.75293,2.81152-.75293.87012,0,1.64551.16016,2.32617.48096.68164.32031,1.23145.76904,1.65234,1.3457.41992.57715.66992,1.25049.74902,2.021h-2.16992c-.11914-.53662-.3916-.99902-.81641-1.38672-.4248-.38818-.99316-.58203-1.7041-.58203-.62207,0-1.16504.16309-1.62988.48877s-.82617.78809-1.08496,1.38672c-.25781.59961-.3877,1.30664-.3877,2.12207,0,.83496.12695,1.55615.38086,2.1626.25293.60645.6123,1.07617,1.07715,1.40918s1.0127.49951,1.64453.49951c.42285,0,.80664-.07812,1.15234-.23486.3457-.15625.63574-.38135.87207-.6748.23633-.29297.40137-.646.49609-1.05908h2.16992c-.0791.74121-.32031,1.40234-.72363,1.98389-.40234.58154-.94043,1.03906-1.61426,1.37207s-1.46289.49951-2.36719.49951Z"/><path class="uuid-7c121561-a359-416e-8bd8-cdc76794070c" d="m762.52832,428.26367c-.72559,0-1.38184-.13525-1.96875-.40625-.58594-.271-1.0498-.66504-1.39062-1.18213s-.51074-1.15088-.51074-1.90137c0-.64648.12402-1.17822.37305-1.59619.24805-.41748.58398-.74805,1.00684-.9917.42188-.24365.89453-.42773,1.41699-.55176.52148-.12451,1.05371-.21875,1.5957-.28369.68555-.0791,1.24316-.14502,1.66992-.19727.42773-.05225.73828-.13818.93262-.25732.19434-.11963.29102-.31348.29102-.58154v-.05225c0-.65137-.18262-1.15625-.54785-1.51416-.36621-.35791-.90918-.53662-1.62988-.53662-.75098,0-1.34082.16504-1.77148.49561-.42969.33105-.72656.69727-.89062,1.1001l-2.0957-.47705c.24902-.69629.6123-1.25928,1.09277-1.68945.47949-.42969,1.03223-.74316,1.65918-.93945.62598-.19629,1.28516-.29443,1.97559-.29443.45801,0,.94336.05322,1.45801.16016s.99707.30225,1.44727.58545.81934.6875,1.10742,1.21191.43262,1.2041.43262,2.03955v7.60645h-2.17773v-1.56592h-.08984c-.14355.28809-.36035.57178-.64844.8501s-.65918.50977-1.11133.69336c-.45215.18408-.99414.27588-1.62598.27588Zm.48535-1.78955c.61621,0,1.14453-.12207,1.58398-.36572.44043-.24316.77637-.56299,1.00684-.95801.23145-.39551.34668-.81885.34668-1.27148v-1.47656c-.0791.07959-.23242.15283-.45801.21973-.22656.06738-.4834.12451-.77246.17188-.28809.04736-.56934.08936-.8418.12646-.27344.0376-.50293.06836-.68652.09326-.43262.05469-.82617.14697-1.18164.27588-.35547.12939-.63965.31445-.85059.55566s-.31641.56055-.31641.9585c0,.55176.20312.96826.61133,1.24902.40723.28076.92676.42139,1.55859.42139Z"/><path class="uuid-7c121561-a359-416e-8bd8-cdc76794070c" d="m776.49609,416.55566v1.79004h-6.25684v-1.79004h6.25684Zm-4.5791-2.74414h2.23047v10.83545c0,.43262.06445.75684.19336.97314.12988.21631.29688.36279.50391.43994.20605.07715.43066.11572.6748.11572.17871,0,.33496-.01221.46973-.03711.13379-.0249.23828-.04492.31348-.06006l.40234,1.84229c-.12891.0498-.31348.10059-.55176.15283s-.53711.08057-.89453.08545c-.58691.01025-1.13379-.09424-1.64062-.31299-.50781-.21875-.91797-.55664-1.23047-1.01416-.31348-.45752-.4707-1.03174-.4707-1.72266v-11.29785Z"/><path class="uuid-7c121561-a359-416e-8bd8-cdc76794070c" d="m783.77441,428.24121c-1.12891,0-2.09863-.24219-2.91211-.72705-.8125-.48438-1.43945-1.16797-1.87891-2.05078-.44043-.88232-.66016-1.91748-.66016-3.10596,0-1.17334.21973-2.20703.66016-3.10205.43945-.89502,1.05664-1.59326,1.84961-2.0957.79297-.50195,1.7207-.75293,2.78516-.75293.64648,0,1.27246.10693,1.87891.32031.60645.21387,1.15137.5498,1.63379,1.00684.48145.45752.8623,1.05029,1.14062,1.77881.27832.72803.41797,1.61182.41797,2.65088v.79053h-9.10547v-1.67041h6.91992c0-.58643-.11914-1.10742-.35742-1.5625-.23926-.45459-.57324-.81396-1.00391-1.07764-.42969-.26318-.93262-.39502-1.50977-.39502-.62598,0-1.17188.15283-1.63672.4585s-.82324.70361-1.07422,1.19336-.37598,1.02051-.37598,1.59229v1.30469c0,.76562.13477,1.41699.40625,1.9541.27051.53662.64941.9458,1.13672,1.22656.4873.28125,1.05664.42139,1.70801.42139.42285,0,.80762-.06055,1.15625-.18262.34766-.12158.64844-.30469.90234-.54834.25293-.24316.44727-.54443.58105-.90234l2.11035.38037c-.16895.62158-.4707,1.16455-.90527,1.62939-.43555.46533-.97949.82568-1.63379,1.08154-.65332.25586-1.39844.38379-2.2334.38379Z"/><path class="uuid-d3f1ae4f-2288-4588-9920-a7d5586f2c1e" d="m942.22754,183.33984h2.33398c.0498.47266.21289.87402.48828,1.20459.27637.33057.6377.58057,1.08496.74951.44824.16895.94531.25342,1.49219.25342.58594,0,1.1123-.09912,1.57715-.29834.46484-.19873.83105-.49219,1.09961-.87988s.40332-.86523.40332-1.43164c0-.50732-.12207-.97461-.36621-1.40234-.24316-.42725-.62598-.77051-1.14844-1.02881-.52148-.25879-1.20312-.3877-2.04297-.3877h-1.36426v-1.74512l3.66895-4.23584v-.11182h-6.47363v-1.97656h9.48633v1.6709l-4.08691,4.68311v.11914c.70605.04492,1.3457.19141,1.91992.43994.57422.24902,1.06543.57568,1.47363.98096.40723.40527.7207.86865.93945,1.39062s.32812,1.08154.32812,1.67773c0,.88037-.23438,1.66064-.70117,2.3418-.46777.68115-1.11035,1.21436-1.92773,1.59961-.81836.38525-1.75391.57812-2.80762.57812-.97949,0-1.86621-.16943-2.65918-.50732s-1.43164-.82031-1.91602-1.44678-.75195-1.37207-.80176-2.2373Z"/><path class="uuid-d3f1ae4f-2288-4588-9920-a7d5586f2c1e" d="m958.3125,185.23438l-.11133.8125c-.07422.59668-.2002,1.21924-.37695,1.86816-.17578.64893-.35742,1.25146-.54395,1.80859-.18652.55664-.33984.99902-.45898,1.32715h-1.58105c.06445-.30811.1543-.72461.26855-1.24902s.22656-1.10986.33594-1.75635c.10938-.646.19141-1.30469.24609-1.97607l.07422-.83496h2.14746Z"/><path class="uuid-d3f1ae4f-2288-4588-9920-a7d5586f2c1e" d="m966.06152,187.53125c-1.06934,0-2.0127-.18408-2.83008-.55225-.81836-.36768-1.45801-.87451-1.9209-1.521-.46191-.64648-.69043-1.38232-.68555-2.20752-.00488-.646.12793-1.2417.39844-1.78613.27148-.54443.64062-.99902,1.10742-1.36475.46777-.36523.98926-.59766,1.56641-.69727v-.08936c-.76074-.18359-1.37012-.59131-1.82715-1.22314-.45703-.63135-.68359-1.35693-.67871-2.17725-.00488-.78076.20312-1.47803.62305-2.0918.41992-.61426.99805-1.09766,1.7334-1.45068.73633-.35303,1.57422-.5293,2.51367-.5293.92969,0,1.76074.17773,2.49414.5332s1.31152.84033,1.73438,1.4541c.42188.61426.63574,1.30859.64062,2.08447-.00488.82031-.23828,1.5459-.70117,2.17725-.46191.63184-1.06348,1.03955-1.80469,1.22314v.08936c.57227.09961,1.08789.33203,1.54785.69727.45996.36572.82812.82031,1.10352,1.36475.27637.54443.41699,1.14014.42188,1.78613-.00488.8252-.23926,1.56104-.70117,2.20752-.46289.64648-1.10254,1.15332-1.9209,1.521-.81738.36816-1.75586.55225-2.81445.55225Zm0-1.88672c.63086,0,1.17773-.10596,1.64062-.31689.46191-.21143.82031-.50732,1.07324-.8877.25391-.38037.38281-.82666.3877-1.33838-.00488-.53223-.14258-1.00195-.41309-1.40967-.27148-.40771-.6377-.72803-1.10059-.96191-.46191-.23389-.99121-.35059-1.58789-.35059-.60156,0-1.13672.1167-1.60352.35059-.46777.23389-.83496.5542-1.10352.96191s-.40039.87744-.39551,1.40967c-.00488.51172.11816.95801.36914,1.33838s.61035.67627,1.07715.8877c.46777.21094,1.01953.31689,1.65625.31689Zm0-7.10693c.50684,0,.95703-.10205,1.34961-.30566.39258-.2041.70215-.4873.92871-.85059.22559-.36279.3418-.7876.34668-1.2749-.00488-.47754-.11816-.89502-.33984-1.25293-.2207-.35791-.52832-.63525-.9209-.83154s-.84766-.29443-1.36426-.29443c-.52734,0-.98828.09814-1.38379.29443s-.70215.47363-.9209.83154-.3252.77539-.32031,1.25293c-.00488.4873.10449.91211.32812,1.2749.22363.36328.5332.64648.92773.85059.39551.20361.85156.30566,1.36914.30566Z"/><path class="uuid-d3f1ae4f-2288-4588-9920-a7d5586f2c1e" d="m979.47656,187.57568c-1.17773-.00488-2.18457-.31543-3.02051-.93213-.83496-.61621-1.47363-1.51367-1.91602-2.69189s-.66406-2.59766-.66406-4.2583c0-1.65576.22266-3.06982.66797-4.24316.44434-1.17334,1.08594-2.06836,1.92383-2.68457.83789-.6167,1.84082-.9248,3.00879-.9248s2.16992.30957,3.00586.92822c.83496.61914,1.47461,1.51416,1.91992,2.68457.44434,1.1709.66699,2.58398.66699,4.23975,0,1.66553-.2207,3.08643-.66309,4.26172-.44238,1.17578-1.08203,2.07324-1.91699,2.69238-.83496.61865-1.83887.92822-3.0127.92822Zm0-1.99121c1.03418,0,1.84277-.50439,2.42773-1.51367.58398-1.00928.87598-2.46826.87598-4.37744,0-1.26758-.13281-2.34033-.39941-3.21777-.26562-.87744-.64551-1.54395-1.14062-1.99854-.49512-.45508-1.08203-.68262-1.76367-.68262-1.0293,0-1.83691.50732-2.42383,1.52148-.58594,1.01416-.88184,2.47314-.88672,4.37744,0,1.27295.13281,2.34814.39844,3.2251.26562.87793.64551,1.5415,1.1377,1.99121.49219.4502,1.08301.6748,1.77441.6748Z"/><path class="uuid-d3f1ae4f-2288-4588-9920-a7d5586f2c1e" d="m987.72461,187.32227v-1.67041l5.16797-5.35449c.55176-.58154,1.00781-1.09229,1.36914-1.53223.36035-.44043.62988-.85889.80859-1.25684.17871-.39746.26855-.82031.26855-1.26758,0-.50732-.11914-.9458-.35742-1.31641-.23926-.37012-.56445-.65625-.97754-.85742-.41211-.20166-.87695-.30225-1.39453-.30225-.54688,0-1.02441.11182-1.43164.33545-.40723.22412-.7207.53955-.93945.94727s-.32812.88525-.32812,1.43164h-2.2002c0-.9292.21387-1.74219.6416-2.43848.42773-.6958,1.01367-1.23633,1.75977-1.62207.74609-.38477,1.59375-.57764,2.54297-.57764.95898,0,1.80566.18994,2.53906.57031s1.30664.89746,1.71875,1.55127c.41309.65381.61914,1.39062.61914,2.21094,0,.56689-.10547,1.12109-.31641,1.66309-.21191.54199-.57812,1.14453-1.10059,1.80859-.52148.66357-1.24805,1.46777-2.17773,2.41211l-3.03516,3.17725v.11182h6.87598v1.97607h-10.05273Z"/><path class="uuid-d3f1ae4f-2288-4588-9920-a7d5586f2c1e" d="m962.8252,247.49463l6.66699-13.18457v-.11182h-7.71094v-1.97656h10.09766v2.04346l-6.64453,13.22949h-2.40918Z"/><path class="uuid-d3f1ae4f-2288-4588-9920-a7d5586f2c1e" d="m974.46582,247.49463v-1.67041l5.16797-5.35449c.55176-.58154,1.00781-1.09229,1.36914-1.53223.36035-.44043.62988-.85889.80859-1.25684.17871-.39746.26855-.82031.26855-1.26758,0-.50732-.11914-.9458-.35742-1.31641-.23926-.37012-.56445-.65625-.97754-.85742-.41211-.20166-.87695-.30225-1.39453-.30225-.54688,0-1.02441.11182-1.43164.33545-.40723.22412-.7207.53955-.93945.94727s-.32812.88525-.32812,1.43164h-2.2002c0-.9292.21387-1.74219.6416-2.43848.42773-.6958,1.01367-1.23633,1.75977-1.62207.74609-.38477,1.59375-.57764,2.54297-.57764.95898,0,1.80566.18994,2.53906.57031s1.30664.89746,1.71875,1.55127c.41309.65381.61914,1.39062.61914,2.21094,0,.56689-.10547,1.12109-.31641,1.66309-.21191.54199-.57812,1.14453-1.10059,1.80859-.52148.66357-1.24805,1.46777-2.17773,2.41211l-3.03516,3.17725v.11182h6.87598v1.97607h-10.05273Z"/><path class="uuid-d3f1ae4f-2288-4588-9920-a7d5586f2c1e" d="m992.50586,247.70361c-1.06934,0-2.0127-.18408-2.83008-.55225-.81836-.36768-1.45801-.87451-1.9209-1.521-.46191-.64648-.69043-1.38232-.68555-2.20752-.00488-.646.12793-1.2417.39844-1.78613.27148-.54443.64062-.99902,1.10742-1.36475.46777-.36523.98926-.59766,1.56641-.69727v-.08936c-.76074-.18359-1.37012-.59131-1.82715-1.22314-.45703-.63135-.68359-1.35693-.67871-2.17725-.00488-.78076.20312-1.47803.62305-2.0918.41992-.61426.99805-1.09766,1.7334-1.45068.73633-.35303,1.57422-.5293,2.51367-.5293.92969,0,1.76074.17773,2.49414.5332s1.31152.84033,1.73438,1.4541c.42188.61426.63574,1.30859.64062,2.08447-.00488.82031-.23828,1.5459-.70117,2.17725-.46191.63184-1.06348,1.03955-1.80469,1.22314v.08936c.57227.09961,1.08789.33203,1.54785.69727.45996.36572.82812.82031,1.10352,1.36475.27637.54443.41699,1.14014.42188,1.78613-.00488.8252-.23926,1.56104-.70117,2.20752-.46289.64648-1.10254,1.15332-1.9209,1.521-.81738.36816-1.75586.55225-2.81445.55225Zm0-1.88672c.63086,0,1.17773-.10596,1.64062-.31689.46191-.21143.82031-.50732,1.07324-.8877.25391-.38037.38281-.82666.3877-1.33838-.00488-.53223-.14258-1.00195-.41309-1.40967-.27148-.40771-.6377-.72803-1.10059-.96191-.46191-.23389-.99121-.35059-1.58789-.35059-.60156,0-1.13672.1167-1.60352.35059-.46777.23389-.83496.5542-1.10352.96191s-.40039.87744-.39551,1.40967c-.00488.51172.11816.95801.36914,1.33838s.61035.67627,1.07715.8877c.46777.21094,1.01953.31689,1.65625.31689Zm0-7.10693c.50684,0,.95703-.10205,1.34961-.30566.39258-.2041.70215-.4873.92871-.85059.22559-.36279.3418-.7876.34668-1.2749-.00488-.47754-.11816-.89502-.33984-1.25293-.2207-.35791-.52832-.63525-.9209-.83154s-.84766-.29443-1.36426-.29443c-.52734,0-.98828.09814-1.38379.29443s-.70215.47363-.9209.83154-.3252.77539-.32031,1.25293c-.00488.4873.10449.91211.32812,1.2749.22363.36328.5332.64648.92773.85059.39551.20361.85156.30566,1.36914.30566Z"/><path class="uuid-d3f1ae4f-2288-4588-9920-a7d5586f2c1e" d="m953.4209,292.39355v15.27295h-2.31152v-12.96094h-.08984l-3.6543,2.38623v-2.20703l3.81055-2.49121h2.24512Z"/><path class="uuid-d3f1ae4f-2288-4588-9920-a7d5586f2c1e" d="m959.61719,305.57861l-.11133.8125c-.07422.59668-.2002,1.21924-.37695,1.86816-.17578.64893-.35742,1.25146-.54395,1.80859-.18652.55664-.33984.99902-.45898,1.32715h-1.58105c.06445-.30811.1543-.72461.26855-1.24902s.22656-1.10986.33594-1.75635c.10938-.646.19141-1.30469.24609-1.97607l.07422-.83496h2.14746Z"/><path class="uuid-d3f1ae4f-2288-4588-9920-a7d5586f2c1e" d="m961.95215,303.68408h2.33398c.0498.47266.21289.87402.48828,1.20459.27637.33057.6377.58057,1.08496.74951.44824.16895.94531.25342,1.49219.25342.58594,0,1.1123-.09912,1.57715-.29834.46484-.19873.83105-.49219,1.09961-.87988s.40332-.86523.40332-1.43164c0-.50732-.12207-.97461-.36621-1.40234-.24316-.42725-.62598-.77051-1.14844-1.02881-.52148-.25879-1.20312-.3877-2.04297-.3877h-1.36426v-1.74512l3.66895-4.23584v-.11182h-6.47363v-1.97656h9.48633v1.6709l-4.08691,4.68311v.11914c.70605.04492,1.3457.19141,1.91992.43994.57422.24902,1.06543.57568,1.47363.98096.40723.40527.7207.86865.93945,1.39062s.32812,1.08154.32812,1.67773c0,.88037-.23438,1.66064-.70117,2.3418-.46777.68115-1.11035,1.21436-1.92773,1.59961-.81836.38525-1.75391.57812-2.80762.57812-.97949,0-1.86621-.16943-2.65918-.50732s-1.43164-.82031-1.91602-1.44678-.75195-1.37207-.80176-2.2373Z"/><path class="uuid-d3f1ae4f-2288-4588-9920-a7d5586f2c1e" d="m976.08301,307.6665l6.66699-13.18457v-.11182h-7.71094v-1.97656h10.09766v2.04346l-6.64453,13.22949h-2.40918Z"/><path class="uuid-d3f1ae4f-2288-4588-9920-a7d5586f2c1e" d="m987.72461,307.6665v-1.67041l5.16797-5.35449c.55176-.58154,1.00781-1.09229,1.36914-1.53223.36035-.44043.62988-.85889.80859-1.25684.17871-.39746.26855-.82031.26855-1.26758,0-.50732-.11914-.9458-.35742-1.31641-.23926-.37012-.56445-.65625-.97754-.85742-.41211-.20166-.87695-.30225-1.39453-.30225-.54688,0-1.02441.11182-1.43164.33545-.40723.22412-.7207.53955-.93945.94727s-.32812.88525-.32812,1.43164h-2.2002c0-.9292.21387-1.74219.6416-2.43848.42773-.6958,1.01367-1.23633,1.75977-1.62207.74609-.38477,1.59375-.57764,2.54297-.57764.95898,0,1.80566.18994,2.53906.57031s1.30664.89746,1.71875,1.55127c.41309.65381.61914,1.39062.61914,2.21094,0,.56689-.10547,1.12109-.31641,1.66309-.21191.54199-.57812,1.14453-1.10059,1.80859-.52148.66357-1.24805,1.46777-2.17773,2.41211l-3.03516,3.17725v.11182h6.87598v1.97607h-10.05273Z"/><path class="uuid-d3f1ae4f-2288-4588-9920-a7d5586f2c1e" d="m959.60352,364.85547v-1.86426l5.98047-10.42578h2.25293l-5.83984,10.2168v.11914h9.06836v1.9541h-11.46191Zm7.24121,2.98291v-3.53467l.0293-.86523v-5.14551h2.15527v9.54541h-2.18457Z"/><path class="uuid-d3f1ae4f-2288-4588-9920-a7d5586f2c1e" d="m978.97754,368.0918c-1.17773-.00488-2.18457-.31543-3.02051-.93213-.83496-.61621-1.47363-1.51367-1.91602-2.69189s-.66406-2.59766-.66406-4.2583c0-1.65576.22266-3.06982.66797-4.24316.44434-1.17334,1.08594-2.06836,1.92383-2.68457.83789-.6167,1.84082-.9248,3.00879-.9248s2.16992.30957,3.00586.92822c.83496.61914,1.47461,1.51416,1.91992,2.68457.44434,1.1709.66699,2.58398.66699,4.23975,0,1.66553-.2207,3.08643-.66309,4.26172-.44238,1.17578-1.08203,2.07324-1.91699,2.69238-.83496.61865-1.83887.92822-3.0127.92822Zm0-1.99121c1.03418,0,1.84277-.50439,2.42773-1.51367.58398-1.00928.87598-2.46826.87598-4.37744,0-1.26758-.13281-2.34033-.39941-3.21777-.26562-.87744-.64551-1.54395-1.14062-1.99854-.49512-.45508-1.08203-.68262-1.76367-.68262-1.0293,0-1.83691.50732-2.42383,1.52148-.58594,1.01416-.88184,2.47314-.88672,4.37744,0,1.27295.13281,2.34814.39844,3.2251.26562.87793.64551,1.5415,1.1377,1.99121.49219.4502,1.08301.6748,1.77441.6748Z"/><path class="uuid-d3f1ae4f-2288-4588-9920-a7d5586f2c1e" d="m986.9873,363.85596h2.33398c.0498.47266.21289.87402.48828,1.20459.27637.33057.6377.58057,1.08496.74951.44824.16895.94531.25342,1.49219.25342.58594,0,1.1123-.09912,1.57715-.29834.46484-.19873.83105-.49219,1.09961-.87988s.40332-.86523.40332-1.43164c0-.50732-.12207-.97461-.36621-1.40234-.24316-.42725-.62598-.77051-1.14844-1.02881-.52148-.25879-1.20312-.3877-2.04297-.3877h-1.36426v-1.74512l3.66895-4.23584v-.11182h-6.47363v-1.97656h9.48633v1.6709l-4.08691,4.68311v.11914c.70605.04492,1.3457.19141,1.91992.43994.57422.24902,1.06543.57568,1.47363.98096.40723.40527.7207.86865.93945,1.39062s.32812,1.08154.32812,1.67773c0,.88037-.23438,1.66064-.70117,2.3418-.46777.68115-1.11035,1.21436-1.92773,1.59961-.81836.38525-1.75391.57812-2.80762.57812-.97949,0-1.86621-.16943-2.65918-.50732s-1.43164-.82031-1.91602-1.44678-.75195-1.37207-.80176-2.2373Z"/><path class="uuid-d3f1ae4f-2288-4588-9920-a7d5586f2c1e" d="m970.99805,412.7373v15.27295h-2.31152v-12.96094h-.08984l-3.6543,2.38623v-2.20703l3.81055-2.49121h2.24512Z"/><path class="uuid-d3f1ae4f-2288-4588-9920-a7d5586f2c1e" d="m974.80859,417.53271c0-.97949.21582-1.84473.64844-2.59521s1.02832-1.33984,1.78613-1.76758c.75879-.42725,1.62207-.64111,2.5918-.64111.95898,0,1.82324.2124,2.5918.6377.76758.4248,1.37402,1.01904,1.81934,1.78223.44434.76318.66211,1.65186.65234,2.66602-.00488.49707-.07715,1.00439-.21582,1.521-.13965.51758-.36328,1.0791-.67188,1.68555-.30762.60645-.7207,1.29541-1.2373,2.06592l-3.46094,5.12305h-2.43848l3.92285-5.73486c-.18359.05957-.37305.1084-.56641.14551-.19434.03711-.39062.05615-.58984.05615-.93457,0-1.76465-.21387-2.49023-.6416-.72656-.42725-1.29785-1.01172-1.71582-1.75244-.41699-.74072-.62598-1.59082-.62598-2.55029Zm2.20703-.0376c0,.60205.12109,1.13281.3623,1.59229.24121.45996.57422.81934.99902,1.07764.4248.25879.91309.3877,1.46582.3877.55176,0,1.04102-.12891,1.46875-.3877.42773-.2583.76172-.61523,1.00293-1.07031.24121-.45459.36133-.97803.36133-1.56934,0-.60156-.12012-1.13379-.36133-1.59619s-.5752-.8252-1.00293-1.08887c-.42773-.26318-.91992-.39502-1.47656-.39502-.55176,0-1.04004.13037-1.46582.3916-.4248.26074-.75684.62158-.99512,1.08105-.23828.45996-.3584.98584-.3584,1.57715Z"/><path class="uuid-d3f1ae4f-2288-4588-9920-a7d5586f2c1e" d="m992.625,428.21924c-.93555,0-1.77441-.18066-2.51758-.54102s-1.33594-.85596-1.77832-1.48779c-.44238-.63086-.67871-1.35205-.70801-2.1626h2.23633c.05469.65625.3457,1.1958.87305,1.61865.52637.42236,1.1582.63379,1.89453.63379.58594,0,1.10742-.13574,1.56152-.40674.45508-.27051.81348-.64502,1.07422-1.12207.26074-.47754.3916-1.02197.3916-1.6333,0-.62158-.13477-1.17578-.40234-1.66309-.26855-.48682-.6377-.86963-1.10742-1.14844-.4707-.27832-1.00879-.41992-1.61523-.4248-.46191,0-.92676.07959-1.39453.23828-.4668.15918-.84473.36816-1.13281.62646l-2.11133-.31299.8584-7.69629h8.39648v1.97656h-6.48047l-.48438,4.27295h.08887c.29883-.28809.69531-.5293,1.18945-.72314.49512-.19434,1.02539-.29102,1.59277-.29102.92969,0,1.75879.22119,2.4873.66357.72754.44287,1.30176,1.04541,1.72266,1.80859.41992.76318.62695,1.63916.62207,2.62842.00488.98975-.21777,1.87207-.66699,2.64746-.4502.77588-1.07129,1.38623-1.86426,1.83105s-1.70215.66748-2.72559.66748Z"/><path class="uuid-7c121561-a359-416e-8bd8-cdc76794070c" d="m227.06738,302.10791c-3.01172,0-5.69336-.5542-8.04395-1.66211s-4.21484-2.63477-5.59277-4.58105c-1.37793-1.9458-2.0957-4.17578-2.15234-6.68994h8.94922c.09961,1.69043.80957,3.06104,2.13086,4.11182,1.32031,1.05176,2.89062,1.57666,4.70898,1.57666,1.44824,0,2.73047-.32275,3.8457-.96924,1.11426-.646,1.98828-1.54785,2.62012-2.70605.63184-1.15723.94824-2.48926.94824-3.99512,0-1.53369-.32324-2.8833-.96875-4.04834-.64648-1.16455-1.53809-2.07373-2.6748-2.72705-1.13574-.65332-2.43555-.9873-3.89844-1.00146-1.27832,0-2.51855.26318-3.71875.78857s-2.13379,1.24316-2.80176,2.15186l-8.20312-1.47021,2.06738-23.01123h26.67578v7.54248h-19.06934l-1.12988,10.93018h.25586c.76758-1.0791,1.9248-1.97412,3.47363-2.68457,1.54785-.70996,3.28125-1.06543,5.19824-1.06543,2.62793,0,4.97168.61816,7.03125,1.854s3.68652,2.92969,4.87988,5.08154c1.19238,2.15186,1.78223,4.62744,1.76758,7.42529.01465,2.94043-.66406,5.55078-2.03418,7.83057-1.37109,2.27979-3.28125,4.06934-5.73145,5.36914s-5.29492,1.94971-8.5332,1.94971Z"/><path class="uuid-7c121561-a359-416e-8bd8-cdc76794070c" d="m266.08008,302.10791c-3.28125,0-6.19727-.53662-8.74707-1.60889s-4.54883-2.53857-5.99805-4.3999c-1.44824-1.86035-2.17285-3.96973-2.17285-6.32812,0-1.81787.41504-3.49023,1.24609-5.01758.83105-1.52686,1.96387-2.79834,3.39844-3.81396,1.43457-1.01514,3.04004-1.66504,4.81543-1.94971v-.29834c-2.3291-.46875-4.21875-1.60107-5.66699-3.39844-1.44922-1.79639-2.17383-3.88818-2.17383-6.27441,0-2.25879.66113-4.27246,1.98145-6.04053,1.32129-1.76855,3.13574-3.16064,5.44434-4.17627,2.30762-1.01562,4.93262-1.52344,7.87305-1.52344s5.56445.51123,7.87207,1.53418c2.30859,1.02246,4.12305,2.41797,5.44434,4.18652s1.98828,3.7749,2.00293,6.01953c-.01465,2.40039-.75293,4.49561-2.21582,6.28516-1.46289,1.79004-3.33789,2.91895-5.625,3.3877v.29834c1.74707.28467,3.33398.93457,4.76172,1.94971,1.42773,1.01562,2.56445,2.28711,3.40918,3.81396.84473,1.52734,1.27441,3.19971,1.28906,5.01758-.01465,2.3584-.74609,4.46777-2.19434,6.32812-1.44922,1.86133-3.44824,3.32764-5.99805,4.3999s-5.46484,1.60889-8.74609,1.60889Zm0-6.77588c1.46289,0,2.74121-.26611,3.83496-.79883s1.94922-1.271,2.56738-2.21582c.61816-.94434.92676-2.03467.92676-3.27051,0-1.26416-.31934-2.38281-.95898-3.35596-.63867-.97266-1.50586-1.73975-2.59961-2.30127-1.09375-.56104-2.35059-.84131-3.77051-.84131-1.40625,0-2.66406.28027-3.77148.84131-1.1084.56152-1.97852,1.32861-2.61035,2.30127-.63184.97314-.94824,2.0918-.94824,3.35596,0,1.23584.30566,2.32617.91602,3.27051.61133.94482,1.4707,1.68311,2.57812,2.21582,1.1084.53271,2.38672.79883,3.83594.79883Zm0-19.49561c1.2207,0,2.30762-.24805,3.25977-.74561.95117-.49707,1.69727-1.18604,2.2373-2.06689.53906-.88037.80957-1.896.80957-3.04688,0-1.13623-.27051-2.13379-.80957-2.99365-.54004-.85889-1.27832-1.53418-2.21582-2.02393-.9375-.49023-2.03223-.73535-3.28125-.73535-1.23633,0-2.33008.24512-3.28125.73535-.95215.48975-1.69434,1.16504-2.22656,2.02393-.5332.85986-.7998,1.85742-.7998,2.99365,0,1.15088.27051,2.1665.81055,3.04688.53906.88086,1.28516,1.56982,2.23633,2.06689.95215.49756,2.03906.74561,3.26074.74561Z"/><path class="uuid-7c121561-a359-416e-8bd8-cdc76794070c" d="m293.58691,302.06543c-1.40625,0-2.61035-.50098-3.6123-1.50244-1.00098-1.00146-1.50195-2.20508-1.50195-3.61133,0-1.39209.50098-2.58496,1.50195-3.57959,1.00195-.99414,2.20605-1.4917,3.6123-1.4917,1.36328,0,2.55664.49756,3.5791,1.4917,1.02246.99463,1.53418,2.1875,1.53418,3.57959,0,.9375-.23828,1.79346-.71387,2.56738-.47559.77441-1.09766,1.39209-1.86426,1.85352-.76758.46143-1.6123.69287-2.53516.69287Z"/><path class="uuid-7c121561-a359-416e-8bd8-cdc76794070c" d="m321.64746,302.10791c-3.01172,0-5.69238-.5542-8.04297-1.66211-2.35156-1.10791-4.21582-2.63477-5.59375-4.58105-1.37793-1.9458-2.09473-4.17578-2.15137-6.68994h8.94824c.09961,1.69043.81055,3.06104,2.13086,4.11182,1.32129,1.05176,2.89062,1.57666,4.70898,1.57666,1.44922,0,2.73047-.32275,3.8457-.96924,1.11523-.646,1.98828-1.54785,2.62109-2.70605.63184-1.15723.94824-2.48926.94824-3.99512,0-1.53369-.32324-2.8833-.96973-4.04834-.64648-1.16455-1.53809-2.07373-2.67383-2.72705-1.13672-.65332-2.43652-.9873-3.89941-1.00146-1.27832,0-2.51758.26318-3.71777.78857s-2.13477,1.24316-2.80176,2.15186l-8.20312-1.47021,2.06641-23.01123h26.67676v7.54248h-19.07031l-1.12891,10.93018h.25586c.7666-1.0791,1.92383-1.97412,3.47266-2.68457,1.54785-.70996,3.28125-1.06543,5.19922-1.06543,2.62695,0,4.9707.61816,7.03125,1.854,2.05957,1.23584,3.68555,2.92969,4.87891,5.08154s1.78223,4.62744,1.76855,7.42529c.01367,2.94043-.66406,5.55078-2.03516,7.83057s-3.28125,4.06934-5.73145,5.36914-5.29492,1.94971-8.5332,1.94971Z"/><path class="uuid-7c121561-a359-416e-8bd8-cdc76794070c" d="m345.87305,268.35791v-2.30127c0-1.76123.37695-3.37695,1.12988-4.84717.75195-1.47021,1.84277-2.64551,3.27051-3.52637,1.42773-.88037,3.15625-1.3208,5.18848-1.3208,2.10156,0,3.86328.44043,5.2832,1.3208,1.4209.88086,2.5,2.05615,3.23926,3.52637.73828,1.47021,1.10742,3.08594,1.10742,4.84717v2.30127c0,1.76123-.37207,3.37354-1.11816,4.83643-.74609,1.46338-1.83203,2.63135-3.25977,3.50488-1.42773.87402-3.17871,1.31055-5.25195,1.31055-2.07422,0-3.8252-.44385-5.25293-1.33154-1.42676-.8877-2.50684-2.05957-3.23828-3.51562s-1.09766-3.05762-1.09766-4.80469Zm2.8125,33.15332l30-43.63623h5.58301l-30,43.63623h-5.58301Zm3.43066-35.45459v2.30127c0,1.03711.24512,1.99561.73535,2.87646s1.35938,1.3208,2.61035,1.3208c1.30664,0,2.19727-.43994,2.67383-1.3208.47559-.88086.71387-1.83936.71387-2.87646v-2.30127c0-1.03662-.22754-2.00293-.68262-2.89746-.4541-.89502-1.35645-1.34277-2.70508-1.34277-1.26465,0-2.13867.45508-2.62109,1.36377-.4834.90918-.72461,1.86816-.72461,2.87646Zm16.15039,27.27295v-2.30127c0-1.74707.37305-3.35596,1.11914-4.82617.74512-1.47021,1.83203-2.64893,3.25977-3.53662s3.1709-1.33203,5.23047-1.33203c2.08789,0,3.8457.44043,5.27344,1.32129s2.50684,2.05615,3.23926,3.52637c.73145,1.47021,1.09668,3.08594,1.09668,4.84717v2.30127c0,1.74707-.36914,3.35547-1.10742,4.82568-.73926,1.47021-1.82617,2.64941-3.25977,3.53711-1.43555.8877-3.18262,1.33154-5.24219,1.33154-2.08789,0-3.84277-.44385-5.2627-1.33154-1.4209-.8877-2.5-2.06689-3.23828-3.53711-.73926-1.47021-1.1084-3.07861-1.1084-4.82568Zm6.2002-2.30127v2.30127c0,1.00879.24512,1.95996.73535,2.85498s1.38086,1.34229,2.67383,1.34229,2.17676-.43994,2.65332-1.3208c.47559-.88086.71387-1.83936.71387-2.87646v-2.30127c0-1.03662-.22754-2.00293-.68262-2.89795-.4541-.89453-1.34961-1.34229-2.68457-1.34229-1.27832,0-2.16602.44775-2.66309,1.34229-.49707.89502-.74609,1.86133-.74609,2.89795Z"/><path class="uuid-d3f1ae4f-2288-4588-9920-a7d5586f2c1e" d="m236.2627,341.67773h-6.35645v-19.63623h6.55762c1.9248,0,3.57715.3916,4.95703,1.17432,1.38086.7832,2.44043,1.90479,3.17871,3.36572.73828,1.46045,1.10742,3.21045,1.10742,5.24902,0,2.0459-.37207,3.80371-1.11719,5.27344-.74414,1.4707-1.82031,2.6001-3.22559,3.38965-1.40625.78955-3.10742,1.18408-5.10156,1.18408Zm-3.39355-2.58887h3.23047c1.49609,0,2.73926-.28271,3.73047-.84863.99023-.56543,1.73145-1.38672,2.22363-2.46387s.73828-2.39209.73828-3.9458c0-1.54004-.24414-2.84766-.7334-3.92139-.48828-1.07373-1.21582-1.88867-2.18066-2.44482-.96582-.55615-2.16406-.83398-3.5957-.83398h-3.41309v14.4585Z"/><path class="uuid-d3f1ae4f-2288-4588-9920-a7d5586f2c1e" d="m255.50586,341.9751c-1.45117,0-2.69824-.31152-3.74414-.93506-1.04492-.62305-1.85059-1.50195-2.41602-2.63672-.56543-1.13428-.84863-2.46533-.84863-3.99316,0-1.50879.2832-2.83838.84863-3.98877s1.3584-2.04883,2.37793-2.69434,2.21289-.96826,3.58105-.96826c.83105,0,1.63672.13721,2.41602.41211.78027.2749,1.48047.70654,2.10059,1.29443.61914.58838,1.1084,1.35059,1.4668,2.28662.35742.93652.53711,2.07275.53711,3.40869v1.0166h-11.70703v-2.14795h8.89746c0-.75439-.15332-1.42383-.45996-2.00879-.30762-.58496-.7373-1.04639-1.29004-1.38525s-1.2002-.5083-1.94141-.5083c-.80566,0-1.50684.19678-2.10449.58984s-1.05859.9043-1.38086,1.53369c-.32324.62988-.48438,1.3125-.48438,2.04736v1.67773c0,.98438.17383,1.82178.52246,2.51221s.83594,1.21631,1.46191,1.57715c.62695.36133,1.3584.54199,2.19629.54199.54297,0,1.03809-.07861,1.48633-.23535.44727-.15625.83398-.39111,1.16016-.70459.3252-.31299.5752-.69971.74707-1.16016l2.71387.48926c-.21777.79883-.60547,1.49707-1.16504,2.09473s-1.25879,1.06104-2.09961,1.39014c-.84082.32959-1.79785.49414-2.87207.49414Z"/><path class="uuid-d3f1ae4f-2288-4588-9920-a7d5586f2c1e" d="m267.88379,322.0415v19.63623h-2.86621v-19.63623h2.86621Z"/><path class="uuid-d3f1ae4f-2288-4588-9920-a7d5586f2c1e" d="m273.18652,324.67822c-.49902,0-.92578-.16797-1.28027-.50342s-.53223-.73682-.53223-1.20361c0-.47266.17773-.87695.53223-1.21289.35449-.33545.78125-.50293,1.28027-.50293.49805,0,.9248.16748,1.2793.50293.35547.33594.53223.73682.53223,1.20361,0,.47314-.17676.87744-.53223,1.21289-.35449.33545-.78125.50342-1.2793.50342Zm-1.44824,16.99951v-14.72705h2.86719v14.72705h-2.86719Z"/><path class="uuid-d3f1ae4f-2288-4588-9920-a7d5586f2c1e" d="m291.05859,326.95068l-5.34082,14.72705h-3.06836l-5.34961-14.72705h3.07715l3.73047,11.33301h.15332l3.71973-11.33301h3.07812Z"/><path class="uuid-d3f1ae4f-2288-4588-9920-a7d5586f2c1e" d="m299.58301,341.9751c-1.45117,0-2.69922-.31152-3.74414-.93506-1.04492-.62305-1.85059-1.50195-2.41602-2.63672-.56641-1.13428-.84863-2.46533-.84863-3.99316,0-1.50879.28223-2.83838.84863-3.98877.56543-1.15039,1.35742-2.04883,2.37793-2.69434,1.01953-.64551,2.21289-.96826,3.58105-.96826.83008,0,1.63574.13721,2.41602.41211.7793.2749,1.47949.70654,2.09961,1.29443.62012.58838,1.10938,1.35059,1.4668,2.28662.3584.93652.53711,2.07275.53711,3.40869v1.0166h-11.70703v-2.14795h8.89746c0-.75439-.15332-1.42383-.45996-2.00879s-.73633-1.04639-1.29004-1.38525c-.55273-.33887-1.19922-.5083-1.94141-.5083-.80469,0-1.50684.19678-2.10449.58984s-1.05762.9043-1.38086,1.53369c-.32227.62988-.4834,1.3125-.4834,2.04736v1.67773c0,.98438.17383,1.82178.52246,2.51221.34766.69043.83496,1.21631,1.46191,1.57715.62598.36133,1.3584.54199,2.19531.54199.54395,0,1.03906-.07861,1.48633-.23535.44727-.15625.83398-.39111,1.16016-.70459.32617-.31299.5752-.69971.74805-1.16016l2.71289.48926c-.2168.79883-.60547,1.49707-1.16406,2.09473-.55957.59766-1.25977,1.06104-2.10059,1.39014-.83984.32959-1.79785.49414-2.87109.49414Z"/><path class="uuid-d3f1ae4f-2288-4588-9920-a7d5586f2c1e" d="m309.09375,341.67773v-14.72705h2.77148v2.33936h.15332c.26855-.79248.74316-1.41748,1.42383-1.87451s1.45215-.68555,2.31543-.68555c.17871,0,.3916.00635.6377.01904.24609.01318.43945.02881.58008.04785v2.74219c-.11523-.03174-.32031-.06836-.61426-.10986s-.58789-.0625-.88184-.0625c-.67773,0-1.28027.14209-1.80762.42676-.52734.28418-.94434.67725-1.25098,1.1792s-.45996,1.07227-.45996,1.71143v8.99365h-2.86719Z"/><path class="uuid-d3f1ae4f-2288-4588-9920-a7d5586f2c1e" d="m323.62012,342.00391c-.93359,0-1.77734-.17432-2.53125-.52295-.75391-.34814-1.35059-.85449-1.78809-1.51953-.43848-.66455-.65723-1.47949-.65723-2.44482,0-.83105.16016-1.51514.47949-2.05176.31934-.53711.75098-.96191,1.29492-1.27539.54297-.31299,1.15039-.5498,1.82129-.70947s1.35547-.28125,2.05176-.36426c.88184-.10254,1.59766-.18701,2.14746-.25439.5498-.06689.94922-.17725,1.19922-.33057.24902-.15332.37402-.40283.37402-.74805v-.06689c0-.8374-.23535-1.48633-.70508-1.94629-.46973-.46045-1.16797-.69043-2.09473-.69043-.96582,0-1.72461.2124-2.27734.6377-.55273.4248-.93457.89648-1.14551,1.41406l-2.69434-.61377c.31934-.89453.78711-1.61865,1.4043-2.17139.61719-.55322,1.32812-.95557,2.13379-1.2085.80469-.25244,1.65234-.37842,2.54004-.37842.58887,0,1.21289.06885,1.875.20605.66113.1377,1.28125.38818,1.86035.75244.57812.36475,1.05273.88379,1.42383,1.55811.37012.6748.55566,1.54883.55566,2.62256v9.77979h-2.7998v-2.01367h-.11523c-.18555.37109-.46289.73535-.83398,1.09326-.37012.35791-.84668.65527-1.42871.8916-.58105.23633-1.27832.35498-2.08984.35498Zm.62305-2.30127c.79297,0,1.47168-.15674,2.03711-.46973.56641-.31348.99805-.72412,1.29492-1.23242.29688-.50781.44531-1.05273.44531-1.63477v-1.89844c-.10156.10254-.29883.19678-.58887.2832-.29102.08594-.62207.15967-.99316.22021-.37012.06104-.73145.11523-1.08301.16309s-.64551.08789-.88184.12012c-.55664.07031-1.06348.18848-1.51953.35449-.45703.1665-.82227.4043-1.09375.71436s-.40723.7207-.40723,1.23193c0,.70947.26172,1.24512.78613,1.60596.52441.36133,1.19238.54199,2.00391.54199Z"/><path class="uuid-d3f1ae4f-2288-4588-9920-a7d5586f2c1e" d="m334.93359,341.67773v-19.63623h2.86719v7.29639h.17285c.16602-.30664.40527-.66162.71875-1.06445.31348-.40234.74805-.75586,1.30371-1.05908.55664-.30371,1.29102-.45557,2.20605-.45557,1.18848,0,2.24902.30029,3.18262.90137.93359.60059,1.66699,1.4668,2.2002,2.59814.53418,1.13135.80078,2.49316.80078,4.08447,0,1.5918-.26465,2.95508-.7959,4.08936-.53027,1.13477-1.25879,2.00732-2.18555,2.61768s-1.98535.91553-3.17383.91553c-.89453,0-1.625-.15039-2.19043-.45068-.56641-.30029-1.00879-.65186-1.32812-1.05469-.32031-.40283-.56641-.76074-.73828-1.07373h-.24023v2.2915h-2.7998Zm2.80957-7.36377c0,1.03564.15039,1.94336.45117,2.72314.2998.77979.73438,1.38867,1.30371,1.82666.56836.43799,1.26562.65674,2.08984.65674.85645,0,1.57227-.22852,2.14746-.68555.57617-.45703,1.01172-1.07861,1.30957-1.86475.29688-.78662.44531-1.67188.44531-2.65625,0-.97119-.14551-1.84375-.43652-2.61719-.29004-.77344-.72559-1.38428-1.30371-1.83154s-1.29883-.67139-2.16211-.67139c-.83105,0-1.53223.21436-2.10449.64258s-1.00488,1.02588-1.29883,1.79297-.44141,1.66211-.44141,2.68457Z"/><path class="uuid-d3f1ae4f-2288-4588-9920-a7d5586f2c1e" d="m354.46484,322.0415v19.63623h-2.86719v-19.63623h2.86719Z"/><path class="uuid-d3f1ae4f-2288-4588-9920-a7d5586f2c1e" d="m364.66602,341.9751c-1.45117,0-2.69824-.31152-3.74414-.93506-1.04492-.62305-1.85059-1.50195-2.41602-2.63672-.56543-1.13428-.84863-2.46533-.84863-3.99316,0-1.50879.2832-2.83838.84863-3.98877s1.3584-2.04883,2.37793-2.69434,2.21289-.96826,3.58105-.96826c.83105,0,1.63672.13721,2.41602.41211.78027.2749,1.48047.70654,2.10059,1.29443.61914.58838,1.1084,1.35059,1.4668,2.28662.35742.93652.53711,2.07275.53711,3.40869v1.0166h-11.70703v-2.14795h8.89746c0-.75439-.15332-1.42383-.45996-2.00879-.30762-.58496-.7373-1.04639-1.29004-1.38525s-1.2002-.5083-1.94141-.5083c-.80566,0-1.50684.19678-2.10449.58984s-1.05859.9043-1.38086,1.53369c-.32324.62988-.48438,1.3125-.48438,2.04736v1.67773c0,.98438.17383,1.82178.52246,2.51221s.83594,1.21631,1.46191,1.57715c.62695.36133,1.3584.54199,2.19629.54199.54297,0,1.03809-.07861,1.48633-.23535.44727-.15625.83398-.39111,1.16016-.70459.3252-.31299.5752-.69971.74707-1.16016l2.71387.48926c-.21777.79883-.60547,1.49707-1.16504,2.09473s-1.25879,1.06104-2.09961,1.39014c-.84082.32959-1.79785.49414-2.87207.49414Z"/><path class="uuid-9fd66607-62d4-4f8b-8494-e53780fd3654" d="m614.58008,186.68896c-.85156,0-1.61523-.16113-2.28906-.48291-.67188-.32178-1.20703-.76367-1.59961-1.32617-.39453-.5625-.60547-1.20605-.63086-1.93066h2.30078c.04297.53711.27539.9751.69727,1.31396.42188.33838.92969.50781,1.52148.50781.46484,0,.87891-.10645,1.24023-.31934.36133-.21338.64844-.50928.85742-.88867.20703-.37939.31055-.81152.30664-1.29736.00391-.49463-.10156-.93359-.31445-1.31689-.21289-.38379-.50391-.68506-.875-.9043-.37109-.21973-.79688-.32959-1.2793-.32959-.39062-.00391-.77734.06836-1.15625.21729-.37891.14941-.67969.34521-.90039.58838l-2.14258-.35156.68359-6.75h7.59375v1.98145h-5.63086l-.37695,3.4707h.07617c.24414-.28516.58594-.52295,1.0293-.7124.44336-.18994.92969-.28467,1.45703-.28467.79297,0,1.5.18652,2.12305.55957.62109.37256,1.11133.88525,1.4707,1.53711.35742.65186.53711,1.39795.53711,2.2373,0,.86523-.19922,1.63525-.59766,2.31055-.40039.67578-.95117,1.20605-1.65625,1.5918s-1.52148.57861-2.44531.57861Z"/><path class="uuid-9fd66607-62d4-4f8b-8494-e53780fd3654" d="m626.06641,186.68896c-.95117,0-1.79297-.16016-2.52734-.47949-.73633-.31982-1.31055-.75781-1.72656-1.31348-.41602-.55615-.62109-1.18799-.61719-1.89551-.00391-.5498.11523-1.05469.35742-1.51465.24414-.46045.57227-.84521.98828-1.15381.41602-.30908.87891-.50635,1.39062-.59131v-.08984c-.67383-.14893-1.21875-.49316-1.63281-1.03223-.41602-.53906-.62109-1.16211-.61719-1.86963-.00391-.67334.18359-1.27393.5625-1.80225.37891-.52881.89844-.94531,1.55859-1.25.66211-.30469,1.41602-.45703,2.26367-.45703.83984,0,1.58789.15234,2.24609.45703s1.17969.72119,1.56055,1.25c.38086.52832.57227,1.12891.57227,1.80225,0,.70752-.21094,1.33057-.63086,1.86963s-.95898.8833-1.61914,1.03223v.08984c.51172.08496.97266.28223,1.38281.59131.41211.30859.74023.69336.98438,1.15381.24609.45996.36719.96484.36719,1.51465,0,.70752-.20703,1.33936-.625,1.89551-.41797.55566-.99219.99365-1.72266,1.31348-.73047.31934-1.57031.47949-2.51562.47949Zm0-1.82812c.49023,0,.91602-.08447,1.27734-.25293.36328-.16797.64453-.40576.84375-.7124.20117-.30713.30273-.66064.30859-1.06104-.00586-.41748-.11328-.7876-.32422-1.10938-.21094-.32129-.49805-.57373-.86328-.75732-.36328-.18311-.77734-.2749-1.24219-.2749-.46875,0-.88672.0918-1.25391.2749-.36523.18359-.6543.43604-.86523.75732-.21094.32178-.31445.69189-.31055,1.10938-.00391.40039.09375.75293.29492,1.05762.19922.30469.48242.54248.8457.71289.36523.17041.79492.25586,1.28906.25586Zm0-5.96387c.40039,0,.75586-.08105,1.06445-.24316.30859-.16162.55273-.3877.73242-.67725.17773-.29004.26953-.62451.27344-1.00391-.00391-.375-.09375-.7041-.26758-.9873-.17578-.2832-.41797-.50293-.72852-.65869-.3125-.15527-.66992-.23291-1.07422-.23291-.41406,0-.77734.07764-1.08984.23291-.3125.15576-.55664.37549-.72852.65869-.17383.2832-.25781.6123-.25195.9873-.00586.37939.08203.71289.25781,1.00049.17773.2876.42188.51367.73438.67773.31445.16406.67383.24609,1.07812.24609Z"/><path class="uuid-9fd66607-62d4-4f8b-8494-e53780fd3654" d="m634.10156,186.65039c-.38867,0-.7207-.13623-.99805-.40918-.27734-.27246-.41211-.60498-.4082-.99707-.00391-.3833.13086-.71143.4082-.98438.27734-.27246.60938-.40918.99805-.40918.375,0,.70117.13672.98047.40918.2793.27295.42188.60107.42578.98438-.00391.25977-.07227.49658-.20117.70947-.13086.21338-.30078.38232-.51172.5083-.21094.12549-.44141.18848-.69336.18848Z"/><path class="uuid-9fd66607-62d4-4f8b-8494-e53780fd3654" d="m642.27734,186.68896c-.85156,0-1.61523-.16113-2.28906-.48291-.67188-.32178-1.20703-.76367-1.59961-1.32617-.39453-.5625-.60547-1.20605-.63086-1.93066h2.30078c.04297.53711.27539.9751.69727,1.31396.42188.33838.92969.50781,1.52148.50781.46484,0,.87891-.10645,1.24023-.31934.36133-.21338.64844-.50928.85742-.88867.20703-.37939.31055-.81152.30664-1.29736.00391-.49463-.10156-.93359-.31445-1.31689-.21289-.38379-.50391-.68506-.875-.9043-.37109-.21973-.79688-.32959-1.2793-.32959-.39062-.00391-.77734.06836-1.15625.21729-.37891.14941-.67969.34521-.90039.58838l-2.14258-.35156.68359-6.75h7.59375v1.98145h-5.63086l-.37695,3.4707h.07617c.24414-.28516.58594-.52295,1.0293-.7124.44336-.18994.92969-.28467,1.45703-.28467.79297,0,1.5.18652,2.12305.55957.62109.37256,1.11133.88525,1.4707,1.53711.35742.65186.53711,1.39795.53711,2.2373,0,.86523-.19922,1.63525-.59766,2.31055-.40039.67578-.95117,1.20605-1.65625,1.5918s-1.52148.57861-2.44531.57861Z"/><path class="uuid-9fd66607-62d4-4f8b-8494-e53780fd3654" d="m649.45508,176.56396v-.69043c0-.51172.10938-.97998.32617-1.40625s.5332-.76807.94531-1.02588c.41406-.25781.91406-.38672,1.50195-.38672.60156,0,1.10742.12891,1.51953.38672.41016.25781.7207.59961.92969,1.02588s.3125.89453.3125,1.40625v.69043c0,.51123-.10547.979-.31641,1.40283s-.52344.76367-.93555,1.01953c-.41406.25586-.91602.3833-1.50977.3833-.59961,0-1.10547-.12744-1.51758-.3833-.41016-.25586-.72266-.59668-.93555-1.02295-.21289-.42578-.32031-.89258-.32031-1.39941Zm.72852,9.9458l9-13.09082h1.59766l-9,13.09082h-1.59766Zm.95312-10.63623v.69043c0,.34082.08008.65088.24023.92969.1582.2793.44336.41895.85156.41895.41016,0,.69141-.13965.84766-.41895.15625-.27881.23438-.58887.23438-.92969v-.69043c0-.34082-.07617-.65332-.22461-.93652s-.43555-.42529-.85742-.42529c-.4043,0-.6875.14307-.84961.42822-.16211.28564-.24219.59668-.24219.93359Zm4.97266,8.18164v-.69043c0-.50684.10742-.97363.32227-1.3999.21484-.42578.5293-.76904.94336-1.02881.41406-.26025.91406-.39014,1.50195-.39014.60547,0,1.11328.12891,1.52148.38672s.71875.6001.92969,1.02588c.21094.42627.31641.89502.31641,1.40625v.69043c0,.50732-.10547.97363-.31836,1.3999-.21484.42627-.52539.76904-.9375,1.0293-.41016.25977-.91406.38965-1.51172.38965-.5957,0-1.10156-.12988-1.51562-.38965-.41211-.26025-.72461-.60303-.93555-1.0293s-.31641-.89258-.31641-1.3999Zm1.66797-.69043v.69043c0,.33691.08203.64551.24414.92676.16016.28125.44727.42188.85547.42188.41406,0,.69727-.13916.85352-.41846s.23242-.58936.23242-.93018v-.69043c0-.34082-.07422-.65283-.22266-.93652-.14844-.2832-.4375-.4248-.86328-.4248-.40039,0-.68359.1416-.84961.4248-.16602.28369-.25.5957-.25.93652Z"/><path class="uuid-9fd66607-62d4-4f8b-8494-e53780fd3654" d="m618.70312,233.6123v13.09082h-2.37109v-10.7832h-.07617l-3.0625,1.95508v-2.17285l3.25391-2.08984h2.25586Z"/><path class="uuid-9fd66607-62d4-4f8b-8494-e53780fd3654" d="m627.35742,233.6123v13.09082h-2.37109v-10.7832h-.07617l-3.0625,1.95508v-2.17285l3.25391-2.08984h2.25586Z"/><path class="uuid-9fd66607-62d4-4f8b-8494-e53780fd3654" d="m631.42383,246.84375c-.38867,0-.7207-.13672-.99805-.40918s-.41211-.60547-.4082-.99707c-.00391-.38379.13086-.71191.4082-.98438s.60938-.40918.99805-.40918c.375,0,.70117.13672.98047.40918s.42188.60059.42578.98438c-.00391.25977-.07227.49609-.20117.70898-.13086.21387-.30078.38281-.51172.50879-.21094.125-.44141.18848-.69336.18848Z"/><path class="uuid-9fd66607-62d4-4f8b-8494-e53780fd3654" d="m635.20117,246.70312v-1.71289l4.54492-4.45605c.43359-.43848.79688-.82812,1.08594-1.16895.29102-.34082.50781-.67188.65234-.99121s.2168-.66016.2168-1.02246c0-.41309-.09375-.76855-.28125-1.06445s-.44531-.52539-.77344-.6875c-.32812-.16113-.70117-.24219-1.11719-.24219-.43164,0-.80859.08789-1.13281.26465s-.57422.42773-.75.75098c-.17773.32422-.26562.70996-.26562,1.15723h-2.25586c0-.83105.18945-1.55371.56836-2.16699s.90234-1.08887,1.56836-1.42578c.66797-.33594,1.43359-.50488,2.29883-.50488.87695,0,1.64844.16406,2.31445.49219.66406.32812,1.18164.77832,1.54883,1.34863.36914.57129.55273,1.22363.55273,1.95605,0,.49023-.09375.97168-.28125,1.44531-.1875.47266-.51562.99707-.98633,1.57227s-1.13086,1.27148-1.97852,2.08984l-2.25586,2.29492v.08984h5.70117v1.98145h-8.97461Z"/><path class="uuid-9fd66607-62d4-4f8b-8494-e53780fd3654" d="m646.73242,236.75684v-.69043c0-.51172.10938-.97949.32617-1.40625.2168-.42578.5332-.76758.94531-1.02539.41406-.25781.91406-.38672,1.50195-.38672.60156,0,1.10742.12891,1.51953.38672.41016.25781.7207.59961.92969,1.02539.20898.42676.3125.89453.3125,1.40625v.69043c0,.51172-.10547.97949-.31641,1.40332s-.52344.76367-.93555,1.01953c-.41406.25586-.91602.38281-1.50977.38281-.59961,0-1.10547-.12695-1.51758-.38281-.41016-.25586-.72266-.59668-.93555-1.02344-.21289-.42578-.32031-.89258-.32031-1.39941Zm.72852,9.94629l9-13.09082h1.59766l-9,13.09082h-1.59766Zm.95312-10.63672v.69043c0,.34082.08008.65137.24023.92969.1582.2793.44336.41895.85156.41895.41016,0,.69141-.13965.84766-.41895.15625-.27832.23438-.58887.23438-.92969v-.69043c0-.34082-.07617-.65332-.22461-.93652s-.43555-.4248-.85742-.4248c-.4043,0-.6875.14258-.84961.42773-.16211.28613-.24219.59668-.24219.93359Zm4.97266,8.18164v-.69043c0-.50684.10742-.97363.32227-1.39941s.5293-.76953.94336-1.0293.91406-.38965,1.50195-.38965c.60547,0,1.11328.12891,1.52148.38672s.71875.59961.92969,1.02539c.21094.42676.31641.89551.31641,1.40625v.69043c0,.50781-.10547.97363-.31836,1.40039-.21484.42578-.52539.76855-.9375,1.0293-.41016.25977-.91406.38965-1.51172.38965-.5957,0-1.10156-.12988-1.51562-.38965-.41211-.26074-.72461-.60352-.93555-1.0293-.21094-.42676-.31641-.89258-.31641-1.40039Zm1.66797-.69043v.69043c0,.33691.08203.64551.24414.92676.16016.28125.44727.42188.85547.42188.41406,0,.69727-.13867.85352-.41797s.23242-.58984.23242-.93066v-.69043c0-.34082-.07422-.65234-.22266-.93652-.14844-.2832-.4375-.4248-.86328-.4248-.40039,0-.68359.1416-.84961.4248-.16602.28418-.25.5957-.25.93652Z"/><path class="uuid-9fd66607-62d4-4f8b-8494-e53780fd3654" d="m614.18359,306.89648v-1.71289l4.54492-4.45605c.43457-.43848.79688-.82812,1.08691-1.16895s.50684-.67188.65137-.99121c.14551-.31934.21777-.66016.21777-1.02246,0-.41309-.09375-.76855-.28125-1.06445s-.44531-.52539-.77344-.6875c-.32812-.16113-.70117-.24219-1.11816-.24219-.43066,0-.80762.08789-1.13184.26465s-.57422.42773-.75098.75098c-.17676.32422-.26562.70996-.26562,1.15723h-2.25586c0-.83105.18945-1.55371.56836-2.16699.37988-.61328.90234-1.08887,1.56934-1.42578.66699-.33594,1.43262-.50488,2.29785-.50488.87793,0,1.64941.16406,2.31445.49219.66406.32812,1.18164.77832,1.5498,1.34863.36816.57129.55273,1.22363.55273,1.95605,0,.49023-.09375.97168-.28125,1.44531-.1875.47266-.5166.99707-.9873,1.57227s-1.13086,1.27148-1.97852,2.08984l-2.25586,2.29492v.08984h5.70117v1.98145h-8.97461Z"/><path class="uuid-9fd66607-62d4-4f8b-8494-e53780fd3654" d="m630.69434,293.80566v13.09082h-2.37207v-10.7832h-.07617l-3.0625,1.95508v-2.17285l3.25391-2.08984h2.25684Z"/><path class="uuid-9fd66607-62d4-4f8b-8494-e53780fd3654" d="m634.75977,307.03711c-.3877,0-.71973-.13672-.99707-.40918s-.41309-.60547-.40918-.99707c-.00391-.38379.13184-.71191.40918-.98438s.60938-.40918.99707-.40918c.375,0,.70215.13672.98145.40918s.4209.60059.4248.98438c-.00391.25977-.07129.49609-.20117.70898-.12988.21387-.30078.38281-.51172.50879-.21094.125-.44141.18848-.69336.18848Z"/><path class="uuid-9fd66607-62d4-4f8b-8494-e53780fd3654" d="m642.25195,293.80566v13.09082h-2.37207v-10.7832h-.07617l-3.0625,1.95508v-2.17285l3.25391-2.08984h2.25684Z"/><path class="uuid-9fd66607-62d4-4f8b-8494-e53780fd3654" d="m645.92676,296.9502v-.69043c0-.51172.1084-.97949.32617-1.40625.2168-.42578.53223-.76758.94531-1.02539s.91406-.38672,1.50195-.38672c.60156,0,1.10742.12891,1.51855.38672s.72168.59961.92969,1.02539c.20898.42676.31348.89453.31348,1.40625v.69043c0,.51172-.10547.97949-.31641,1.40332s-.52344.76367-.93652,1.01953-.91602.38281-1.50879.38281c-.60059,0-1.10645-.12695-1.51758-.38281s-.72363-.59668-.93652-1.02344c-.21289-.42578-.31934-.89258-.31934-1.39941Zm.72852,9.94629l9-13.09082h1.59766l-9,13.09082h-1.59766Zm.95215-10.63672v.69043c0,.34082.08008.65137.24023.92969.15918.2793.44434.41895.85254.41895.40918,0,.69141-.13965.84766-.41895.15527-.27832.2334-.58887.2334-.92969v-.69043c0-.34082-.0752-.65332-.22363-.93652-.14941-.2832-.43555-.4248-.85742-.4248-.4043,0-.6875.14258-.84961.42773-.16211.28613-.24316.59668-.24316.93359Zm4.97363,8.18164v-.69043c0-.50684.10742-.97363.32227-1.39941s.5293-.76953.94336-1.0293c.41309-.25977.91406-.38965,1.50195-.38965.60449,0,1.1123.12891,1.52148.38672.4082.25781.71875.59961.92969,1.02539.21094.42676.31641.89551.31641,1.40625v.69043c0,.50781-.10645.97363-.31934,1.40039-.21387.42578-.52539.76855-.93652,1.0293-.41113.25977-.91504.38965-1.51172.38965s-1.10156-.12988-1.51562-.38965c-.41309-.26074-.72461-.60352-.93555-1.0293-.21094-.42676-.31641-.89258-.31641-1.40039Zm1.66797-.69043v.69043c0,.33691.08105.64551.24316.92676.16113.28125.44727.42188.85645.42188.41309,0,.69727-.13867.85352-.41797.15527-.2793.23242-.58984.23242-.93066v-.69043c0-.34082-.07422-.65234-.22363-.93652-.14844-.2832-.43652-.4248-.8623-.4248-.40039,0-.68457.1416-.85059.4248-.16602.28418-.24902.5957-.24902.93652Z"/><path class="uuid-9fd66607-62d4-4f8b-8494-e53780fd3654" d="m615.7207,362.87695c.00977-.44238.07227-.88965.18945-1.33887s.30273-.92676.55859-1.43164.5918-1.0625,1.00391-1.67188l3.00391-4.43555h2.42969l-3.26562,4.78125c.15625-.04297.32031-.07812.49219-.10547.16992-.02832.34375-.04199.52344-.04199.79688,0,1.50781.18164,2.13086.54297.625.3623,1.11719.86328,1.47461,1.50293.35742.63867.53711,1.37402.53711,2.20508,0,.86523-.19531,1.62695-.58594,2.28516-.38867.6582-.92383,1.17285-1.60352,1.54395-.67969.37012-1.45312.55566-2.31836.55566-.84766,0-1.61719-.17871-2.31055-.53711-.69141-.35742-1.24219-.86523-1.65234-1.52148-.4082-.65625-.61133-1.43359-.60742-2.33301Zm2.30859.05176c0,.47266.09375.89258.28516,1.25879.18945.36621.45312.6543.79102.86328.33984.20898.73047.3125,1.17383.3125.43945,0,.82617-.10254,1.16406-.30957.33594-.20703.59961-.49219.79102-.85645.19336-.36426.28906-.7832.28906-1.25586,0-.47363-.0957-.8916-.28906-1.25586-.19141-.36523-.45508-.65039-.79102-.85742-.33789-.20605-.72461-.30957-1.16406-.30957-.44336,0-.83398.10254-1.17383.30664-.33789.20508-.60156.48828-.79102.85059-.19141.3623-.28516.7793-.28516,1.25293Z"/><path class="uuid-9fd66607-62d4-4f8b-8494-e53780fd3654" d="m628.32617,367.23047c-.38672,0-.71875-.13672-.99609-.40918s-.41406-.60547-.41016-.99707c-.00391-.38379.13281-.71191.41016-.98438s.60938-.40918.99609-.40918c.375,0,.70312.13672.98242.40918s.41992.60059.42383.98438c-.00391.25977-.07031.49609-.20117.70898-.12891.21387-.30078.38281-.51172.50879-.21094.125-.44141.18848-.69336.18848Z"/><path class="uuid-9fd66607-62d4-4f8b-8494-e53780fd3654" d="m632.10352,367.08984v-1.71289l4.54492-4.45605c.43555-.43848.79688-.82812,1.08789-1.16895.28906-.34082.50586-.67188.65039-.99121.14648-.31934.21875-.66016.21875-1.02246,0-.41309-.09375-.76855-.28125-1.06445s-.44531-.52539-.77344-.6875c-.32812-.16113-.70117-.24219-1.11914-.24219-.42969,0-.80664.08789-1.13086.26465s-.57422.42773-.75195.75098c-.17578.32422-.26562.70996-.26562,1.15723h-2.25586c0-.83105.18945-1.55371.56836-2.16699.38086-.61328.90234-1.08887,1.57031-1.42578.66602-.33594,1.43164-.50488,2.29688-.50488.87891,0,1.65039.16406,2.31445.49219s1.18164.77832,1.55078,1.34863c.36719.57129.55273,1.22363.55273,1.95605,0,.49023-.09375.97168-.28125,1.44531-.1875.47266-.51758.99707-.98828,1.57227s-1.13086,1.27148-1.97852,2.08984l-2.25586,2.29492v.08984h5.70117v1.98145h-8.97461Z"/><path class="uuid-9fd66607-62d4-4f8b-8494-e53780fd3654" d="m643.63477,357.14355v-.69043c0-.51172.10938-.97949.32617-1.40625.2168-.42578.5332-.76758.94531-1.02539.41406-.25781.91406-.38672,1.50195-.38672.60156,0,1.10742.12891,1.51953.38672.41016.25781.7207.59961.92969,1.02539.20898.42676.3125.89453.3125,1.40625v.69043c0,.51172-.10547.97949-.31641,1.40332s-.52344.76367-.93555,1.01953c-.41406.25586-.91602.38281-1.50977.38281-.59961,0-1.10547-.12695-1.51758-.38281-.41016-.25586-.72266-.59668-.93555-1.02344-.21289-.42578-.32031-.89258-.32031-1.39941Zm.72852,9.94629l9-13.09082h1.59766l-9,13.09082h-1.59766Zm.95312-10.63672v.69043c0,.34082.08008.65137.24023.92969.1582.2793.44336.41895.85156.41895.41016,0,.69141-.13965.84766-.41895.15625-.27832.23438-.58887.23438-.92969v-.69043c0-.34082-.07617-.65332-.22461-.93652s-.43555-.4248-.85742-.4248c-.4043,0-.6875.14258-.84961.42773-.16211.28613-.24219.59668-.24219.93359Zm4.97266,8.18164v-.69043c0-.50684.10742-.97363.32227-1.39941s.5293-.76953.94336-1.0293.91406-.38965,1.50195-.38965c.60547,0,1.11328.12891,1.52148.38672s.71875.59961.92969,1.02539c.21094.42676.31641.89551.31641,1.40625v.69043c0,.50781-.10547.97363-.31836,1.40039-.21484.42578-.52539.76855-.9375,1.0293-.41016.25977-.91406.38965-1.51172.38965-.5957,0-1.10156-.12988-1.51562-.38965-.41211-.26074-.72461-.60352-.93555-1.0293-.21094-.42676-.31641-.89258-.31641-1.40039Zm1.66797-.69043v.69043c0,.33691.08203.64551.24414.92676.16016.28125.44727.42188.85547.42188.41406,0,.69727-.13867.85352-.41797s.23242-.58984.23242-.93066v-.69043c0-.34082-.07422-.65234-.22266-.93652-.14844-.2832-.4375-.4248-.86328-.4248-.40039,0-.68359.1416-.84961.4248-.16602.28418-.25.5957-.25.93652Z"/><path class="uuid-9fd66607-62d4-4f8b-8494-e53780fd3654" d="m615.37988,423.72217h2.39648c.03027.3667.15332.68115.37109.94287.21777.26221.50293.4624.85645.60107s.74805.20752,1.18262.20752c.45996,0,.87109-.07959,1.2334-.23975.3623-.15967.64648-.38965.85352-.68994.20703-.30078.31055-.66602.31055-1.09668,0-.396-.09961-.75732-.29785-1.08301-.19824-.32617-.49902-.58594-.9043-.78027-.40527-.19385-.92285-.29053-1.55371-.29053h-1.29688v-1.70654l3.0293-3.32422v-.08936h-5.53516v-1.98145h8.52734v1.71289l-3.51562,3.78418v.10205c.64746.05127,1.21973.18799,1.71582.40918.49609.22168.91309.50488,1.25.8501.33594.34521.58984.7334.76074,1.16357.16992.43018.25488.88184.25488,1.35498,0,.76709-.20996,1.44238-.62891,2.02637-.41992.58398-.99512,1.04102-1.72656,1.37109-.73047.33008-1.5625.49561-2.49609.49561-.89453,0-1.69629-.15381-2.40625-.46045s-1.27539-.74023-1.69727-1.30078-.64941-1.21973-.68359-1.97852Z"/><path class="uuid-9fd66607-62d4-4f8b-8494-e53780fd3654" d="m628.28516,427.42334c-.3877,0-.71973-.13623-.99707-.40918-.27734-.27246-.41309-.60498-.40918-.99707-.00391-.3833.13184-.71143.40918-.98438.27734-.27246.60938-.40918.99707-.40918.375,0,.70215.13672.98145.40918.2793.27295.4209.60107.4248.98438-.00391.25977-.07129.49658-.20117.70947-.12988.21338-.30078.38232-.51172.5083-.21094.12549-.44141.18848-.69336.18848Z"/><path class="uuid-9fd66607-62d4-4f8b-8494-e53780fd3654" d="m636.39062,427.53223c-1.05273,0-1.95508-.26758-2.70703-.80225-.75195-.53516-1.3291-1.30859-1.73242-2.32031-.40234-1.01221-.60352-2.23193-.60352-3.65967.00391-1.42725.20801-2.64307.61035-3.64648.40234-1.00391.98047-1.76953,1.73242-2.29785.75195-.52881,1.65234-.79297,2.7002-.79297,1.04883,0,1.9502.26416,2.7041.79297.75391.52832,1.33301,1.29541,1.73535,2.30078.40234,1.00586.60449,2.22021.60449,3.64355,0,1.43164-.20215,2.65381-.60449,3.66602s-.98047,1.78418-1.73242,2.31689-1.6543.79932-2.70703.79932Zm0-2.00098c.81836,0,1.46484-.40381,1.94043-1.21143.47461-.80713.71289-1.99756.71289-3.56982,0-1.03955-.10938-1.91309-.32617-2.62061-.21777-.70752-.52441-1.24121-.9209-1.60107-.39648-.36035-.86523-.54053-1.40625-.54053-.81348,0-1.45703.40381-1.93066,1.21143-.47266.80762-.71094,1.99121-.71582,3.55078-.00391,1.04395.10156,1.92188.31641,2.63379.21582.71143.52148,1.24756.91797,1.60742.39551.35986.86719.54004,1.41211.54004Z"/><path class="uuid-9fd66607-62d4-4f8b-8494-e53780fd3654" d="m643.90137,417.33691v-.69043c0-.51172.1084-.97998.32617-1.40625.2168-.42627.53223-.76807.94531-1.02588s.91406-.38672,1.50195-.38672c.60156,0,1.10742.12891,1.51855.38672s.72168.59961.92969,1.02588c.20898.42627.31348.89453.31348,1.40625v.69043c0,.51123-.10547.979-.31641,1.40283s-.52344.76367-.93652,1.01953-.91602.3833-1.50879.3833c-.60059,0-1.10645-.12744-1.51758-.3833s-.72363-.59668-.93652-1.02295c-.21289-.42578-.31934-.89258-.31934-1.39941Zm.72852,9.9458l9-13.09082h1.59766l-9,13.09082h-1.59766Zm.95215-10.63623v.69043c0,.34082.08008.65088.24023.92969.15918.2793.44434.41895.85254.41895.40918,0,.69141-.13965.84766-.41895.15527-.27881.2334-.58887.2334-.92969v-.69043c0-.34082-.0752-.65332-.22363-.93652-.14941-.2832-.43555-.42529-.85742-.42529-.4043,0-.6875.14307-.84961.42822-.16211.28564-.24316.59668-.24316.93359Zm4.97363,8.18164v-.69043c0-.50684.10742-.97363.32227-1.3999.21484-.42578.5293-.76904.94336-1.02881.41309-.26025.91406-.39014,1.50195-.39014.60449,0,1.1123.12891,1.52148.38672.4082.25781.71875.6001.92969,1.02588.21094.42627.31641.89502.31641,1.40625v.69043c0,.50732-.10645.97363-.31934,1.3999-.21387.42627-.52539.76904-.93652,1.0293-.41113.25977-.91504.38965-1.51172.38965s-1.10156-.12988-1.51562-.38965c-.41309-.26025-.72461-.60303-.93555-1.0293s-.31641-.89258-.31641-1.3999Zm1.66797-.69043v.69043c0,.33691.08105.64551.24316.92676.16113.28125.44727.42188.85645.42188.41309,0,.69727-.13916.85352-.41846.15527-.2793.23242-.58936.23242-.93018v-.69043c0-.34082-.07422-.65283-.22363-.93652-.14844-.2832-.43652-.4248-.8623-.4248-.40039,0-.68457.1416-.85059.4248-.16602.28369-.24902.5957-.24902.93652Z"/></svg>