<svg xmlns="http://www.w3.org/2000/svg" xml:space="preserve" id="Ebene_1" x="0" y="0" style="enable-background:new 0 0 680 382" version="1.1" viewBox="0 0 680 382"><style type="text/css">.st0{fill-rule:evenodd;clip-rule:evenodd;fill:#cff3fa}.st1{fill:none}.st2{fill-rule:evenodd;clip-rule:evenodd;fill:#fff}.st3{fill:#7c8184}.st4{fill-rule:evenodd;clip-rule:evenodd;fill:#edeeee}.st5,.st6{fill:#0fb9dd}.st6{fill-rule:evenodd;clip-rule:evenodd}</style><path d="M351.57 37.5c84.64 0 153.25 68.61 153.25 153.25S436.21 344 351.57 344s-153.25-68.61-153.25-153.25S266.93 37.5 351.57 37.5z" class="st0"/><g><path d="m511.2 47.38 100.92-2.24c.53-.01.97.41.98.94l-46.68 34.4c-1.73 1.27-4.41 3.31-9.45.21l-46.71-32.33a.96.96 0 0 1 .94-.98z" class="st1"/><g><path d="m511.2 47.38 100.92-2.24c.53-.01.97.41.98.94l1.09 49.37a.96.96 0 0 1-.94.98l-100.92 2.24a.96.96 0 0 1-.98-.94l-1.09-49.37a.96.96 0 0 1 .94-.98z" class="st2"/><path d="M512.31 99.17c-.79 0-1.45-.64-1.46-1.43l-1.09-49.37c-.01-.81.63-1.47 1.43-1.49l100.92-2.24c.41 0 .76.14 1.04.41.28.27.44.63.45 1.02l1.09 49.37c.01.81-.63 1.48-1.43 1.49l-100.92 2.24h-.03zm99.83-53.53s-.01 0 0 0l-100.93 2.24c-.25 0-.46.22-.45.47l1.09 49.37c0 .25.23.45.47.45l100.92-2.24c.25 0 .46-.22.45-.47l-1.09-49.37c0-.12-.05-.24-.14-.32a.482.482 0 0 0-.32-.13z" class="st3"/></g><path d="m511.17 48.34 101.05-1.77c.53-.01.65.61.47 1.42l-46.47 37.08c-1.3.87-3.98 2.9-9.02-.2l-46.7-34.66c-.01-.52.14-1.86.67-1.87z" class="st4"/><path d="M512.32 99.13c-.38 0-.74-.14-1.01-.41-.28-.27-.44-.63-.45-1.02 0-.16.07-.32.2-.41l46.68-34.4c1.8-1.33 4.73-3.48 10.01-.23l46.73 32.33c.13.09.21.24.22.4.01.8-.62 1.47-1.42 1.5h-.01l-100.92 2.24h-.03zm-.4-1.23a.469.469 0 0 0 .41.23l100.91-2.24a.49.49 0 0 0 .41-.26l-46.44-32.14c-4.68-2.88-7.07-1.12-8.82.16L511.92 97.9zm101.34-1.51z" class="st3"/><g><path d="m511.2 47.38 100.92-2.24c.53-.01.97.41.98.94l-46.68 34.4c-1.73 1.27-4.41 3.31-9.45.21l-46.71-32.33a.96.96 0 0 1 .94-.98z" class="st2"/><path d="M561.85 82.82c-1.41 0-3.1-.45-5.14-1.7l-46.73-32.34a.526.526 0 0 1-.22-.4c-.01-.81.63-1.47 1.43-1.49l100.92-2.24c.41 0 .76.14 1.04.41.28.27.44.63.45 1.02 0 .16-.07.32-.2.41l-46.68 34.4c-1.11.81-2.64 1.93-4.87 1.93zm-51.04-34.69 46.44 32.15c4.68 2.88 7.07 1.12 8.82-.16l46.47-34.24c-.02-.04-.05-.07-.08-.1a.422.422 0 0 0-.33-.13l-100.92 2.24c-.17-.01-.33.1-.4.24zm.39-.75z" class="st3"/></g><path d="M512.5 99.11c-.38 0-.74-.14-1.01-.41-.28-.27-.44-.63-.45-1.02l-1.09-49.37c-.01-.81.63-1.47 1.43-1.49l100.92-2.24c.41 0 .76.14 1.04.41.28.27.44.63.45 1.02l1.09 49.37c.01.81-.63 1.48-1.43 1.49l-100.92 2.24h-.03zm99.83-53.53s-.01 0 0 0L511.4 47.82c-.25 0-.45.22-.45.47l1.09 49.37c0 .12.05.24.14.32s.19.12.33.13l100.92-2.24c.25 0 .46-.22.45-.47l-1.09-49.37c0-.12-.05-.24-.14-.32a.482.482 0 0 0-.32-.13z" class="st3"/><g><path d="M571.42 61.05c.05 1.23-.09 2.36-.43 3.4-.34 1.04-.85 1.85-1.53 2.45-.68.6-1.48.92-2.4.96-.68.03-1.28-.13-1.79-.47-.52-.34-.87-.82-1.07-1.43l-.15.01c-.39.69-.89 1.22-1.5 1.58s-1.29.56-2.07.59c-1.4.06-2.53-.34-3.37-1.21-.84-.87-1.3-2.07-1.37-3.61-.08-1.77.39-3.24 1.41-4.39 1.02-1.15 2.43-1.77 4.23-1.85.65-.03 1.38 0 2.18.08s1.52.21 2.15.39l-.02 6.02.01.31c.06 1.38.54 2.05 1.43 2.01.68-.03 1.2-.49 1.56-1.39s.51-2.02.45-3.38c-.06-1.47-.42-2.75-1.07-3.84s-1.55-1.91-2.68-2.46c-1.14-.55-2.42-.8-3.86-.74-1.83.08-3.41.53-4.73 1.35s-2.31 1.94-2.96 3.38c-.65 1.44-.94 3.09-.86 4.95.11 2.5.86 4.39 2.25 5.67s3.34 1.87 5.83 1.76c1.66-.07 3.21-.31 4.95-1.04.59-.25 1 .72 1 .72s.29.96-.63 1.3c-1.61.6-3.32 1-5.18 1.08-3.18.14-5.71-.61-7.56-2.25-1.86-1.64-2.85-4-2.99-7.07-.1-2.25.3-4.27 1.18-6.06.89-1.79 2.17-3.19 3.83-4.2 1.67-1 3.58-1.55 5.74-1.65 1.87-.08 3.55.23 5.04.94s2.67 1.77 3.54 3.16c.88 1.42 1.36 3.06 1.44 4.93zm-13.2 2.22c.09 2.01.92 2.97 2.49 2.91 1.66-.07 2.51-1.37 2.56-3.9l.02-3.09c-.55-.12-1.13-.17-1.75-.14-1.1.05-1.94.45-2.53 1.21-.58.75-.85 1.76-.79 3.01z" class="st5"/></g></g><g><path d="m400.68 57.2 184.05 58.02c.97.31 1.51 1.34 1.2 2.31L480.28 151.1c-3.92 1.23-10.02 3.27-17.24-5.43L398.37 58.4c.31-.97 1.34-1.51 2.31-1.2z" class="st1"/><g><path d="m400.68 57.2 184.05 58.02c.97.31 1.51 1.34 1.2 2.31l-28.38 90.04c-.31.97-1.34 1.51-2.31 1.2l-184.05-58.02a1.838 1.838 0 0 1-1.2-2.31l28.38-90.04c.31-.97 1.34-1.51 2.31-1.2z" class="st2"/><path d="M555.8 209.36c-.24 0-.48-.04-.71-.11l-184.05-58.02c-.6-.19-1.09-.6-1.37-1.15-.29-.56-.34-1.19-.15-1.79l28.38-90.04a2.334 2.334 0 0 1 2.94-1.52l184.05 58.02a2.334 2.334 0 0 1 1.52 2.94l-28.38 90.04c-.19.6-.6 1.08-1.15 1.37-.34.17-.71.26-1.08.26zM400.12 57.61c-.21 0-.42.05-.61.15-.32.17-.55.45-.66.79l-28.38 90.04c-.11.34-.08.7.09 1.02.17.32.45.55.79.66l184.05 58.02c.34.11.71.08 1.02-.09.32-.17.55-.45.66-.79l28.38-90.04c.11-.34.08-.7-.09-1.02-.17-.32-.45-.55-.79-.66L400.53 57.68c-.14-.05-.27-.07-.41-.07z" class="st3"/></g><path d="M556.18 209.86c-.29 0-.58-.04-.87-.14L371.27 151.7c-.73-.23-1.32-.73-1.67-1.4-.35-.67-.42-1.44-.18-2.17L397.8 58.1c.23-.73.74-1.32 1.42-1.67a2.8 2.8 0 0 1 2.16-.18l184.04 58.02c.73.23 1.32.73 1.67 1.4.35.67.42 1.44.18 2.17l-28.38 90.04c-.23.73-.73 1.32-1.4 1.67-.41.2-.86.31-1.31.31zM400.5 58.11a.837.837 0 0 0-.8.59l-28.38 90.04a.835.835 0 0 0 .55 1.06l184.05 58.02a.835.835 0 0 0 1.06-.55l28.38-90.04a.835.835 0 0 0-.55-1.06L400.75 58.15c-.08-.02-.16-.04-.25-.04z" class="st3"/><path d="m400.43 57.39 184.22 59.87c.97.31-.61 2.86-.92 3.82l-106.23 39c-3.92 1.23-10.02 3.27-17.24-5.43l-61.5-92.07c.31-.98.7-5.49 1.67-5.19z" class="st4"/><path d="M555.83 209.25c-.23 0-.46-.03-.7-.11l-184.05-58.02c-.6-.19-1.09-.6-1.37-1.15-.29-.56-.34-1.19-.15-1.79.05-.15.17-.28.33-.32l105.78-33.6c3.85-1.21 10.29-3.23 17.64 5.63L558 207.17c.1.13.12.3.08.45-.33 1-1.26 1.63-2.25 1.63zm-.4-1.06c.63.2 1.29-.09 1.59-.65l-64.5-87.03c-6.91-8.32-12.71-6.5-16.56-5.29l-.13.04-105.38 33.47c-.03.27.01.54.14.78.17.32.45.55.79.66l184.05 58.02z" class="st3"/><g><path d="m400.68 57.2 184.05 58.02c.97.31 1.51 1.34 1.2 2.31L480.28 151.1c-3.92 1.23-10.02 3.27-17.24-5.43L398.37 58.4c.31-.97 1.34-1.51 2.31-1.2z" class="st2"/><path d="M474.57 152.71c-3.4 0-7.49-1.39-11.91-6.72L397.97 58.7a.52.52 0 0 1-.08-.45c.19-.6.6-1.08 1.15-1.37.56-.29 1.19-.34 1.78-.15l184.05 58.02a2.334 2.334 0 0 1 1.52 2.94c-.05.15-.17.27-.33.32L480.3 151.62c-1.54.48-3.48 1.09-5.73 1.09zm-75.63-94.38 64.5 87.04c6.91 8.32 12.72 6.5 16.56 5.29l.13-.04 105.38-33.48c.03-.27-.01-.54-.14-.78-.17-.32-.45-.55-.79-.66L400.53 57.68c-.34-.11-.7-.08-1.02.09-.25.12-.44.32-.57.56zm186.99 59.2z" class="st3"/></g><g><path d="M501.27 118.98c-.66 2.26-1.62 4.22-2.88 5.89s-2.68 2.83-4.28 3.5c-1.59.67-3.24.75-4.93.26-1.25-.36-2.24-1.01-2.96-1.94s-1.08-2.01-1.06-3.24l-.28-.08c-1.13 1.01-2.36 1.65-3.68 1.94-1.32.28-2.69.22-4.11-.2-2.58-.75-4.36-2.17-5.36-4.27-.99-2.09-1.08-4.55-.25-7.38.95-3.26 2.7-5.62 5.26-7.08 2.55-1.46 5.48-1.71 8.79-.74 1.2.35 2.5.85 3.9 1.49s2.61 1.32 3.64 2.03l-3.74 10.88-.17.57c-.74 2.53-.29 4.03 1.36 4.51 1.25.36 2.48-.15 3.68-1.55 1.21-1.4 2.17-3.35 2.9-5.85.79-2.7.93-5.24.42-7.61s-1.62-4.41-3.34-6.11c-1.72-1.7-3.9-2.94-6.54-3.71-3.37-.98-6.5-1.14-9.4-.48-2.9.67-5.38 2.1-7.44 4.3-2.07 2.2-3.6 5.01-4.6 8.43-1.34 4.59-1.14 8.47.59 11.65s4.89 5.44 9.48 6.78c3.05.89 5.71 1.34 9.29 1.09 1.78-.12 1.74 1.77 1.74 1.77s.41 2.05-2.13 2.2c-3.23.19-6.54-.26-9.91-1.24-5.85-1.71-9.95-4.62-12.31-8.73-2.35-4.11-2.71-8.99-1.06-14.63 1.2-4.13 3.16-7.54 5.87-10.24s5.88-4.45 9.52-5.24c3.64-.79 7.44-.61 11.41.55 3.43 1 6.28 2.6 8.54 4.81 2.27 2.21 3.75 4.84 4.46 7.9.73 3.07.59 6.32-.42 9.77zm-25.26-4.1c-1.08 3.68-.17 5.95 2.73 6.79 3.05.89 5.4-.94 7.03-5.49l1.94-5.59a12.81 12.81 0 0 0-3.08-1.34c-2.02-.59-3.8-.38-5.32.64-1.53 1.02-2.63 2.68-3.3 4.99z" class="st5"/></g></g><g><g><path d="m76.73 168.58 338.88-75.76c1.78-.4 3.55.72 3.95 2.51l37.06 165.78c.4 1.78-.72 3.55-2.51 3.95l-338.88 75.76c-1.78.4-3.55-.72-3.95-2.51L74.22 172.53c-.4-1.78.73-3.55 2.51-3.95z" class="st2"/><path d="M114.5 341.9a4.31 4.31 0 0 1-4.2-3.37L73.24 172.75c-.25-1.12-.05-2.27.57-3.25.62-.97 1.58-1.64 2.7-1.9l338.88-75.76c1.12-.25 2.27-.05 3.24.56a4.31 4.31 0 0 1 1.9 2.7l37.06 165.78c.25 1.12.05 2.27-.56 3.25a4.31 4.31 0 0 1-2.7 1.9L115.45 341.8c-.32.07-.64.1-.95.1zM76.95 169.56c-.6.14-1.12.5-1.45 1.02-.33.52-.44 1.14-.31 1.74l37.06 165.78c.14.6.5 1.12 1.02 1.45.52.33 1.14.44 1.74.3l338.88-75.76c.6-.13 1.12-.5 1.45-1.02.33-.52.44-1.14.3-1.74L418.58 95.55c-.14-.6-.5-1.12-1.02-1.45-.52-.33-1.13-.44-1.74-.3L76.95 169.56z" class="st3"/></g><path d="m75.66 171.54 340.45-76.12c1.78-.4 5.1 5.58 5.5 7.37L295.7 273.63c-4.99 5.46-12.66 14.13-31.74 7.09l-187.75-99.3c-.4-1.77-2.33-9.48-.55-9.88z" class="st4"/><path d="M114.46 341.73a4.31 4.31 0 0 1-4.2-3.37c-.07-.32.02-.65.24-.89l134.34-147.75c4.92-5.39 13.15-14.4 32.68-7.19l179.47 77.5c.29.13.51.39.58.7.51 2.32-.96 4.62-3.28 5.14l-338.88 75.76c-.32.07-.64.1-.95.1zm-2.09-3.35c.18.4.48.75.86.99.52.33 1.14.44 1.74.3l338.88-75.76a2.319 2.319 0 0 0 1.81-2.28l-178.89-77.25c-18.22-6.72-25.58 1.35-30.46 6.69l-.15.16-133.79 147.15z" class="st3"/><g><path d="m76.86 168.43 338.88-75.76c1.78-.4 3.55.72 3.95 2.51L285.5 242.76c-4.99 5.46-12.66 14.13-31.74 7.09L74.35 172.38c-.4-1.79.73-3.55 2.51-3.95z" class="st2"/><path d="M266.71 253.47c-3.74 0-8.12-.77-13.3-2.68L73.95 173.3c-.29-.13-.51-.39-.58-.7-.52-2.31.95-4.62 3.27-5.14L415.52 91.7c1.12-.25 2.27-.05 3.24.56a4.31 4.31 0 0 1 1.9 2.7c.07.32-.02.65-.24.89L286.09 243.59c-3.61 3.96-9.02 9.88-19.38 9.88zM75.27 171.69l178.89 77.24c18.22 6.72 25.58-1.35 30.46-6.69l.15-.16 133.8-147.15c-.18-.4-.48-.75-.86-.99-.52-.33-1.13-.44-1.74-.3L77.08 169.41a2.309 2.309 0 0 0-1.81 2.28z" class="st3"/></g><path d="M114.5 342.4c-.9 0-1.78-.25-2.56-.75a4.804 4.804 0 0 1-2.12-3.02L72.76 172.86c-.28-1.25-.06-2.54.64-3.62a4.847 4.847 0 0 1 3.01-2.12l338.88-75.76c1.25-.28 2.54-.06 3.62.63 1.09.69 1.84 1.76 2.12 3.02l37.06 165.78c.28 1.25.06 2.54-.63 3.62a4.768 4.768 0 0 1-3.02 2.12l-338.88 75.76c-.35.07-.71.11-1.06.11zM77.06 170.04a1.81 1.81 0 0 0-1.38 2.16l37.06 165.78a1.81 1.81 0 0 0 2.16 1.38l338.88-75.76a1.81 1.81 0 0 0 1.38-2.16L418.1 95.66a1.81 1.81 0 0 0-2.16-1.38L77.06 170.04z" class="st3"/><path d="m327.34 125.66-6.41-3.67a1.64 1.64 0 0 0-2.24.61l-60.62 67.9-32.55-21.97c-.66-.62-1.71-.58-2.32.08l-5.04 5.41c-.62.66-.58 1.71.08 2.32l41.45 58.7 2.74 3.93c.78.45 1.79.18 2.24-.61l63.27-110.46c.45-.78.18-1.79-.6-2.24z" class="st6"/></g></svg>